<svg xmlns="http://www.w3.org/2000/svg" xmlns:xlink="http://www.w3.org/1999/xlink" viewBox="0 0 686.86 328.57"><defs><style>.cls-1{fill:none;stroke:#000;stroke-miterlimit:10;}.cls-2{fill:#a84b3b;}.cls-3{fill:#66372b;}.cls-4{fill:#8a6f57;}.cls-5{fill:#bfb5a3;}.cls-6{fill:#b59e6d;}.cls-7{fill:#847f72;}.cls-8{fill:#6e6957;}.cls-9{fill:#303228;}.cls-10{fill:#7b8c47;}.cls-11{fill:#999a96;}.cls-12{fill:#5d5e5a;}.cls-13{fill:#4e5930;}.cls-14{fill:#2c3715;}.cls-15{fill:#161e06;}.cls-16{fill:#0c0f0b;}.cls-17{fill:#dbe1e4;}.cls-18{fill:#293137;}.cls-19{fill:#596772;}.cls-20{fill:#797f84;}.cls-21{fill:#5a81a6;}.cls-22{fill:#a0bee5;}.cls-23{fill:#77a0d7;}.cls-24{isolation:isolate;font-size:11.83px;font-family:ArialMT, Arial;}.cls-25{letter-spacing:-0.02em;}</style></defs><g id="Layer_4" data-name="Layer 4"><image width="3620" height="2040" transform="translate(-925.25 -242.27) scale(0.27)" xlink:href="../g_results/Manuscript_figures/sankey_plot_all.png"/></g><g id="Layer_7" data-name="Layer 7"><polyline class="cls-1" points="19.28 28.02 19.28 23.49 169.8 23.49 169.8 28.02"/><path d="M39.31,14l-.93,2.82H37.19l3-9h1.39l3.05,9H43.44l-1-2.82Zm2.94-.9-.89-2.57c-.19-.59-.33-1.12-.46-1.64h0c-.13.53-.27,1.07-.45,1.62l-.88,2.59Z"/><path d="M45.9,12.36c0-.76,0-1.41,0-2h1l.05,1.26h0a2,2,0,0,1,1.79-1.41,1.66,1.66,0,0,1,.32,0v1.1a2.33,2.33,0,0,0-.4,0,1.63,1.63,0,0,0-1.56,1.49,3.21,3.21,0,0,0,0,.55v3.43H45.9Z"/><path d="M52,8.51v1.85h1.68v.88H52V14.7c0,.8.24,1.25.89,1.25a2.21,2.21,0,0,0,.67-.08l.06.89a3,3,0,0,1-1,.16,1.64,1.64,0,0,1-1.26-.5,2.45,2.45,0,0,1-.45-1.67V11.24h-1v-.88h1V8.81Z"/><path d="M56.26,8.54a.73.73,0,1,1-.72-.72A.69.69,0,0,1,56.26,8.54ZM55,16.78V10.36h1.16v6.42Z"/><path d="M58.18,16.78V11.24h-.9v-.88h.9V10A2.57,2.57,0,0,1,61,7.21a3.18,3.18,0,0,1,1.63.42l-.32.89a2.59,2.59,0,0,0-1.36-.38c-1.23,0-1.6.87-1.6,1.9v.32h3.74v6.42H61.91V11.24H59.34v5.54Z"/><path d="M69.58,16.55a4.46,4.46,0,0,1-1.84.37,3.06,3.06,0,0,1-3.2-3.28A3.28,3.28,0,0,1,68,10.21a3.75,3.75,0,0,1,1.62.35l-.26.89A2.87,2.87,0,0,0,68,11.14a2.23,2.23,0,0,0-2.26,2.43A2.2,2.2,0,0,0,68,16a3.41,3.41,0,0,0,1.43-.31Z"/><path d="M72.25,8.54a.72.72,0,1,1-1.44,0,.7.7,0,0,1,.72-.72A.69.69,0,0,1,72.25,8.54ZM71,16.78V10.36h1.16v6.42Z"/><path d="M77.61,16.78l-.1-.81h0a2.41,2.41,0,0,1-2,1,1.83,1.83,0,0,1-2-1.84c0-1.55,1.38-2.41,3.86-2.39v-.14A1.33,1.33,0,0,0,76,11.07a3.11,3.11,0,0,0-1.67.48L74,10.77a4.06,4.06,0,0,1,2.12-.56c2,0,2.44,1.34,2.44,2.63v2.4a10.3,10.3,0,0,0,.1,1.54Zm-.18-3.28c-1.26,0-2.71.2-2.71,1.44a1,1,0,0,0,1.09,1.12A1.61,1.61,0,0,0,77.38,15a1.16,1.16,0,0,0,.05-.36Z"/><path d="M80.45,7.35h1.16v9.43H80.45Z"/><path d="M86.43,8a11,11,0,0,1,2.11-.19A3.71,3.71,0,0,1,91,8.41,1.9,1.9,0,0,1,91.75,10a2.11,2.11,0,0,1-1.52,2v0a2.28,2.28,0,0,1,1.85,2.24A2.36,2.36,0,0,1,91.32,16a4.48,4.48,0,0,1-3.09.84,16.8,16.8,0,0,1-1.8-.1Zm1.16,3.67h1.06c1.21,0,1.92-.65,1.92-1.51,0-1-.78-1.46-1.95-1.46a5,5,0,0,0-1,.08Zm0,4.28a5,5,0,0,0,1,.06c1.2,0,2.3-.44,2.3-1.74s-1-1.73-2.31-1.73h-1Z"/><path d="M97.18,16.78l-.1-.81h0a2.37,2.37,0,0,1-2,1,1.83,1.83,0,0,1-2-1.84c0-1.55,1.37-2.41,3.85-2.39v-.14a1.32,1.32,0,0,0-1.46-1.48,3.11,3.11,0,0,0-1.67.48l-.27-.78a4.09,4.09,0,0,1,2.12-.56c2,0,2.44,1.34,2.44,2.63v2.4a10.3,10.3,0,0,0,.1,1.54ZM97,13.5c-1.27,0-2.71.2-2.71,1.44a1,1,0,0,0,1.09,1.12A1.6,1.6,0,0,0,96.94,15a1.18,1.18,0,0,0,.06-.36Z"/><path d="M104.59,16.55a4.38,4.38,0,0,1-1.84.37,3.06,3.06,0,0,1-3.2-3.28A3.28,3.28,0,0,1,103,10.21a3.68,3.68,0,0,1,1.62.35l-.26.89a2.86,2.86,0,0,0-1.36-.31,2.23,2.23,0,0,0-2.27,2.43A2.21,2.21,0,0,0,103,16a3.45,3.45,0,0,0,1.43-.31Z"/><path d="M107.12,13.3h0a8.89,8.89,0,0,1,.56-.73l1.89-2.21H111L108.52,13l2.83,3.78h-1.42l-2.21-3.09-.6.67v2.42H106V7.35h1.16Z"/><path d="M117.74,10.36c0,.45,0,1,0,1.75v3.73a3.74,3.74,0,0,1-.92,2.94,3.45,3.45,0,0,1-2.34.77,4.09,4.09,0,0,1-2.14-.53l.29-.89a3.7,3.7,0,0,0,1.89.51c1.19,0,2.07-.62,2.07-2.25v-.72h0a2.27,2.27,0,0,1-2,1.09,2.88,2.88,0,0,1-2.74-3.14c0-2.18,1.42-3.41,2.9-3.41a2.11,2.11,0,0,1,2,1.11h0l0-1Zm-1.21,2.52a1.72,1.72,0,0,0-.07-.52,1.68,1.68,0,0,0-1.64-1.24c-1.11,0-1.91.94-1.91,2.43,0,1.26.65,2.31,1.9,2.31a1.7,1.7,0,0,0,1.62-1.2,1.87,1.87,0,0,0,.1-.62Z"/><path d="M119.54,12.36c0-.76,0-1.41-.06-2h1l0,1.26h0a2,2,0,0,1,1.79-1.41,1.69,1.69,0,0,1,.33,0v1.1a2.33,2.33,0,0,0-.4,0,1.62,1.62,0,0,0-1.56,1.49,3.21,3.21,0,0,0,0,.55v3.43h-1.16Z"/><path d="M129.56,13.51a3.14,3.14,0,0,1-3.19,3.41,3.05,3.05,0,0,1-3.09-3.3,3.14,3.14,0,0,1,3.19-3.41A3,3,0,0,1,129.56,13.51Zm-5.09.07c0,1.41.8,2.47,1.94,2.47s2-1.05,2-2.5c0-1.09-.55-2.46-1.94-2.46S124.47,12.36,124.47,13.58Z"/><path d="M136.4,15c0,.67,0,1.25,0,1.76h-1l-.06-1.05h0a2.42,2.42,0,0,1-2.13,1.19c-1,0-2.21-.56-2.21-2.81V10.36h1.16V13.9c0,1.23.38,2.06,1.44,2.06a1.69,1.69,0,0,0,1.54-1.07,1.83,1.83,0,0,0,.11-.6V10.36h1.16Z"/><path d="M138.35,12.09c0-.67,0-1.2-.06-1.73h1l.07,1.05h0a2.38,2.38,0,0,1,2.12-1.2c.89,0,2.27.53,2.27,2.74v3.83h-1.16v-3.7c0-1-.4-1.91-1.49-1.91a1.68,1.68,0,0,0-1.57,1.2,1.75,1.75,0,0,0-.08.54v3.87h-1.16Z"/><path d="M151.25,7.35v7.77c0,.57,0,1.21.06,1.66h-1l-.06-1.11h0A2.36,2.36,0,0,1,148,16.92c-1.56,0-2.76-1.31-2.76-3.26,0-2.14,1.33-3.45,2.89-3.45a2.15,2.15,0,0,1,1.94,1h0V7.35ZM150.09,13a2.12,2.12,0,0,0-.05-.5,1.72,1.72,0,0,0-1.69-1.34c-1.21,0-1.93,1.06-1.93,2.47s.65,2.38,1.91,2.38a1.76,1.76,0,0,0,1.71-1.4,2,2,0,0,0,.05-.5Z"/><polyline class="cls-1" points="206.03 28.02 206.03 23.49 325.4 23.49 325.4 28.02"/><path d="M211.62,16.78v-9h1.27l2.86,4.52a24.15,24.15,0,0,1,1.6,2.92l0,0c-.1-1.19-.13-2.28-.13-3.67V7.83h1.09v9h-1.17l-2.84-4.54a29.23,29.23,0,0,1-1.67-3h0c.07,1.13.09,2.21.09,3.69v3.83Z"/><path d="M223.88,16.78l-.11-.81h0a2.39,2.39,0,0,1-2,1,1.84,1.84,0,0,1-2-1.84c0-1.55,1.38-2.41,3.86-2.39v-.14a1.32,1.32,0,0,0-1.46-1.48,3.11,3.11,0,0,0-1.67.48l-.27-.78a4.06,4.06,0,0,1,2.12-.56c2,0,2.44,1.34,2.44,2.63v2.4a10.3,10.3,0,0,0,.1,1.54Zm-.18-3.28c-1.27,0-2.71.2-2.71,1.44a1,1,0,0,0,1.09,1.12A1.6,1.6,0,0,0,223.64,15a1.18,1.18,0,0,0,.06-.36Z"/><path d="M228.06,8.51v1.85h1.68v.88h-1.68V14.7c0,.8.23,1.25.89,1.25a2.21,2.21,0,0,0,.67-.08l.06.89a3,3,0,0,1-1.05.16,1.64,1.64,0,0,1-1.26-.5,2.45,2.45,0,0,1-.45-1.67V11.24h-1v-.88h1V8.81Z"/><path d="M236.42,15c0,.67,0,1.25.06,1.76h-1l-.06-1.05h0a2.41,2.41,0,0,1-2.13,1.19c-1,0-2.21-.56-2.21-2.81V10.36h1.17V13.9c0,1.23.38,2.06,1.43,2.06a1.72,1.72,0,0,0,1.55-1.07,1.84,1.84,0,0,0,.1-.6V10.36h1.16Z"/><path d="M238.37,12.36c0-.76,0-1.41-.06-2h1l0,1.26h0a2,2,0,0,1,1.79-1.41,1.51,1.51,0,0,1,.32,0v1.1a2.13,2.13,0,0,0-.39,0,1.63,1.63,0,0,0-1.57,1.49,3.24,3.24,0,0,0,0,.55v3.43h-1.16Z"/><path d="M246.2,16.78l-.1-.81h0a2.37,2.37,0,0,1-2,1,1.83,1.83,0,0,1-2-1.84c0-1.55,1.38-2.41,3.86-2.39v-.14a1.33,1.33,0,0,0-1.47-1.48,3.14,3.14,0,0,0-1.67.48l-.26-.78a4.06,4.06,0,0,1,2.12-.56c2,0,2.44,1.34,2.44,2.63v2.4a10.38,10.38,0,0,0,.09,1.54ZM246,13.5c-1.26,0-2.71.2-2.71,1.44a1,1,0,0,0,1.09,1.12A1.6,1.6,0,0,0,246,15a1.18,1.18,0,0,0,.06-.36Z"/><path d="M249,7.35h1.16v9.43H249Z"/><path d="M255,8a11,11,0,0,1,2.11-.19,3.71,3.71,0,0,1,2.46.65,1.9,1.9,0,0,1,.74,1.58,2.1,2.1,0,0,1-1.51,2v0a2.29,2.29,0,0,1,1.85,2.24A2.37,2.37,0,0,1,259.9,16a4.45,4.45,0,0,1-3.09.84,16.58,16.58,0,0,1-1.79-.1Zm1.15,3.67h1.06c1.21,0,1.93-.65,1.93-1.51,0-1-.79-1.46-2-1.46a5.07,5.07,0,0,0-1,.08Zm0,4.28a5.19,5.19,0,0,0,1,.06c1.2,0,2.3-.44,2.3-1.74s-1.05-1.73-2.32-1.73h-1Z"/><path d="M265.76,16.78l-.1-.81h0a2.41,2.41,0,0,1-2,1,1.83,1.83,0,0,1-2-1.84c0-1.55,1.38-2.41,3.86-2.39v-.14a1.33,1.33,0,0,0-1.46-1.48,3.11,3.11,0,0,0-1.67.48l-.27-.78a4.06,4.06,0,0,1,2.12-.56c2,0,2.44,1.34,2.44,2.63v2.4a10.3,10.3,0,0,0,.1,1.54Zm-.18-3.28c-1.26,0-2.71.2-2.71,1.44A1,1,0,0,0,264,16.06,1.61,1.61,0,0,0,265.53,15a1.16,1.16,0,0,0,.05-.36Z"/><path d="M273.18,16.55a4.46,4.46,0,0,1-1.84.37,3.06,3.06,0,0,1-3.21-3.28,3.28,3.28,0,0,1,3.45-3.43,3.76,3.76,0,0,1,1.63.35l-.26.89a2.91,2.91,0,0,0-1.37-.31,2.22,2.22,0,0,0-2.26,2.43A2.2,2.2,0,0,0,271.55,16a3.41,3.41,0,0,0,1.43-.31Z"/><path d="M275.71,13.3h0c.16-.22.38-.51.56-.73l1.9-2.21h1.4L277.11,13l2.83,3.78h-1.43l-2.21-3.09-.59.67v2.42h-1.16V7.35h1.16Z"/><path d="M286.33,10.36c0,.45-.06,1-.06,1.75v3.73a3.74,3.74,0,0,1-.91,2.94,3.46,3.46,0,0,1-2.34.77,4.13,4.13,0,0,1-2.15-.53l.3-.89a3.64,3.64,0,0,0,1.89.51c1.19,0,2.06-.62,2.06-2.25v-.72h0a2.27,2.27,0,0,1-2,1.09,2.88,2.88,0,0,1-2.74-3.14c0-2.18,1.42-3.41,2.9-3.41a2.13,2.13,0,0,1,2,1.11h0l.05-1Zm-1.22,2.52a2.12,2.12,0,0,0-.06-.52,1.69,1.69,0,0,0-1.64-1.24c-1.12,0-1.92.94-1.92,2.43,0,1.26.65,2.31,1.91,2.31a1.7,1.7,0,0,0,1.62-1.2,2.16,2.16,0,0,0,.09-.62Z"/><path d="M288.12,12.36c0-.76,0-1.41-.05-2h1l.05,1.26h0A2,2,0,0,1,291,10.21a1.58,1.58,0,0,1,.32,0v1.1a2.25,2.25,0,0,0-.4,0,1.63,1.63,0,0,0-1.56,1.49,3.21,3.21,0,0,0-.05.55v3.43h-1.16Z"/><path d="M298.14,13.51A3.14,3.14,0,0,1,295,16.92a3.06,3.06,0,0,1-3.09-3.3,3.14,3.14,0,0,1,3.19-3.41A3,3,0,0,1,298.14,13.51Zm-5.09.07c0,1.41.81,2.47,1.95,2.47s2-1.05,2-2.5c0-1.09-.55-2.46-1.94-2.46S293.05,12.36,293.05,13.58Z"/><path d="M305,15c0,.67,0,1.25.05,1.76h-1L304,15.73h0a2.39,2.39,0,0,1-2.12,1.19c-1,0-2.21-.56-2.21-2.81V10.36h1.16V13.9c0,1.23.38,2.06,1.43,2.06a1.71,1.71,0,0,0,1.55-1.07,1.83,1.83,0,0,0,.11-.6V10.36H305Z"/><path d="M306.93,12.09c0-.67,0-1.2-.05-1.73h1l.07,1.05h0a2.36,2.36,0,0,1,2.12-1.2c.88,0,2.26.53,2.26,2.74v3.83h-1.16v-3.7c0-1-.39-1.91-1.48-1.91a1.68,1.68,0,0,0-1.58,1.2,2.12,2.12,0,0,0-.08.54v3.87h-1.16Z"/><path d="M319.84,7.35v7.77c0,.57,0,1.21.05,1.66h-1l-.05-1.11h0a2.35,2.35,0,0,1-2.17,1.25c-1.56,0-2.76-1.31-2.76-3.26,0-2.14,1.32-3.45,2.89-3.45a2.13,2.13,0,0,1,1.93,1h0V7.35ZM318.68,13a2.83,2.83,0,0,0-.05-.5,1.72,1.72,0,0,0-1.69-1.34c-1.21,0-1.93,1.06-1.93,2.47s.65,2.38,1.91,2.38a1.75,1.75,0,0,0,1.7-1.4,2,2,0,0,0,.06-.5Z"/><polyline class="cls-1" points="361.69 28.02 361.69 23.49 447.3 23.49 447.3 28.02"/><path d="M357.87,15.37a4.07,4.07,0,0,0,2.07.58c1.18,0,1.87-.62,1.87-1.52s-.48-1.32-1.69-1.77c-1.46-.52-2.37-1.29-2.37-2.54s1.16-2.43,2.9-2.43a4.15,4.15,0,0,1,2,.43l-.32,1a3.43,3.43,0,0,0-1.69-.42c-1.23,0-1.7.72-1.7,1.33,0,.83.55,1.24,1.78,1.72,1.52.6,2.28,1.32,2.28,2.64s-1,2.58-3.13,2.58a4.47,4.47,0,0,1-2.28-.59Z"/><path d="M365.89,8.51v1.85h1.68v.88h-1.68V14.7c0,.8.23,1.25.88,1.25a2.24,2.24,0,0,0,.68-.08l.05.89a2.93,2.93,0,0,1-1,.16,1.62,1.62,0,0,1-1.26-.5,2.45,2.45,0,0,1-.45-1.67V11.24h-1v-.88h1V8.81Z"/><path d="M372.44,16.78l-.1-.81h0a2.37,2.37,0,0,1-2,1,1.83,1.83,0,0,1-2-1.84c0-1.55,1.38-2.41,3.86-2.39v-.14a1.33,1.33,0,0,0-1.46-1.48,3.15,3.15,0,0,0-1.68.48l-.26-.78a4.06,4.06,0,0,1,2.12-.56c2,0,2.44,1.34,2.44,2.63v2.4a9.12,9.12,0,0,0,.1,1.54Zm-.18-3.28c-1.26,0-2.71.2-2.71,1.44a1,1,0,0,0,1.09,1.12A1.61,1.61,0,0,0,372.21,15a1.16,1.16,0,0,0,.05-.36Z"/><path d="M376.63,8.51v1.85h1.68v.88h-1.68V14.7c0,.8.23,1.25.88,1.25a2.33,2.33,0,0,0,.68-.08l.05.89a3,3,0,0,1-1,.16,1.62,1.62,0,0,1-1.26-.5,2.45,2.45,0,0,1-.46-1.67V11.24h-1v-.88h1V8.81Z"/><path d="M380.92,8.54a.72.72,0,1,1-1.44,0,.7.7,0,0,1,.72-.72A.69.69,0,0,1,380.92,8.54Zm-1.3,8.24V10.36h1.16v6.42Z"/><path d="M387.3,16.55a4.38,4.38,0,0,1-1.84.37,3.06,3.06,0,0,1-3.2-3.28,3.28,3.28,0,0,1,3.45-3.43,3.68,3.68,0,0,1,1.62.35l-.26.89a2.86,2.86,0,0,0-1.36-.31,2.23,2.23,0,0,0-2.27,2.43A2.21,2.21,0,0,0,385.68,16a3.45,3.45,0,0,0,1.43-.31Z"/><path d="M391.52,8A16.19,16.19,0,0,1,394,7.76a5.12,5.12,0,0,1,3.62,1.12,4.1,4.1,0,0,1,1.27,3.21,4.78,4.78,0,0,1-1.29,3.48,5.57,5.57,0,0,1-4,1.29,20.52,20.52,0,0,1-2.1-.1Zm1.16,7.92a7.9,7.9,0,0,0,1.16.05,3.42,3.42,0,0,0,3.81-3.79c0-2.11-1.18-3.45-3.62-3.45a7.09,7.09,0,0,0-1.35.12Z"/><path d="M401,13.78a2.05,2.05,0,0,0,2.2,2.23,4.36,4.36,0,0,0,1.78-.33l.2.83a5.28,5.28,0,0,1-2.14.41,3,3,0,0,1-3.16-3.24c0-1.95,1.15-3.47,3-3.47,2.1,0,2.64,1.84,2.64,3a2.56,2.56,0,0,1,0,.55Zm3.42-.84a1.66,1.66,0,0,0-1.61-1.89,1.92,1.92,0,0,0-1.79,1.89Z"/><path d="M411.6,16.55a4.38,4.38,0,0,1-1.84.37,3.06,3.06,0,0,1-3.2-3.28A3.28,3.28,0,0,1,410,10.21a3.68,3.68,0,0,1,1.62.35l-.26.89a2.83,2.83,0,0,0-1.36-.31,2.23,2.23,0,0,0-2.27,2.43A2.21,2.21,0,0,0,410,16a3.45,3.45,0,0,0,1.43-.31Z"/><path d="M418.7,13.51a3.14,3.14,0,0,1-3.19,3.41,3.05,3.05,0,0,1-3.08-3.3,3.14,3.14,0,0,1,3.18-3.41A3,3,0,0,1,418.7,13.51Zm-5.09.07c0,1.41.81,2.47,1.95,2.47s2-1.05,2-2.5c0-1.09-.55-2.46-1.94-2.46S413.61,12.36,413.61,13.58Z"/><path d="M420.18,12.36c0-.76,0-1.41-.06-2h1l0,1.26h0A2,2,0,0,1,423,10.21a1.69,1.69,0,0,1,.33,0v1.1a2.33,2.33,0,0,0-.4,0,1.63,1.63,0,0,0-1.56,1.49,3.21,3.21,0,0,0-.05.55v3.43h-1.16Z"/><path d="M428,16.78l-.1-.81h0a2.41,2.41,0,0,1-2,1,1.83,1.83,0,0,1-2-1.84c0-1.55,1.38-2.41,3.86-2.39v-.14a1.33,1.33,0,0,0-1.46-1.48,3.15,3.15,0,0,0-1.68.48l-.26-.78a4.06,4.06,0,0,1,2.12-.56c2,0,2.44,1.34,2.44,2.63v2.4a9.12,9.12,0,0,0,.1,1.54Zm-.18-3.28c-1.26,0-2.71.2-2.71,1.44a1,1,0,0,0,1.09,1.12A1.61,1.61,0,0,0,427.78,15a1.16,1.16,0,0,0,.05-.36Z"/><path d="M432.2,8.51v1.85h1.68v.88H432.2V14.7c0,.8.23,1.25.88,1.25a2.28,2.28,0,0,0,.68-.08l.05.89a2.93,2.93,0,0,1-1,.16,1.62,1.62,0,0,1-1.26-.5,2.45,2.45,0,0,1-.45-1.67V11.24h-1v-.88h1V8.81Z"/><path d="M436.5,8.54a.71.71,0,0,1-.75.73.7.7,0,0,1-.7-.73.73.73,0,0,1,1.45,0Zm-1.31,8.24V10.36h1.16v6.42Z"/><path d="M444.11,13.51a3.14,3.14,0,0,1-3.19,3.41,3.05,3.05,0,0,1-3.09-3.3A3.14,3.14,0,0,1,441,10.21,3,3,0,0,1,444.11,13.51Zm-5.09.07c0,1.41.8,2.47,1.94,2.47s2-1.05,2-2.5c0-1.09-.55-2.46-1.94-2.46S439,12.36,439,13.58Z"/><path d="M445.58,12.09c0-.67,0-1.2-.05-1.73h1l.07,1.05h0a2.36,2.36,0,0,1,2.12-1.2c.88,0,2.26.53,2.26,2.74v3.83h-1.16v-3.7c0-1-.39-1.91-1.48-1.91a1.66,1.66,0,0,0-1.57,1.2,1.74,1.74,0,0,0-.09.54v3.87h-1.16Z"/><polyline class="cls-1" points="483.36 28.02 483.36 23.49 668.22 23.49 668.22 28.02"/><path d="M520.07,8a16.19,16.19,0,0,1,2.46-.19,5.13,5.13,0,0,1,3.63,1.12,4.1,4.1,0,0,1,1.26,3.21,4.77,4.77,0,0,1-1.28,3.48,5.59,5.59,0,0,1-4,1.29,20.73,20.73,0,0,1-2.11-.1Zm1.16,7.92a8.12,8.12,0,0,0,1.17.05,3.43,3.43,0,0,0,3.81-3.79c0-2.11-1.18-3.45-3.62-3.45a7.13,7.13,0,0,0-1.36.12Z"/><path d="M529.49,10.36l1.4,3.79c.15.43.31.93.41,1.31h0c.11-.38.25-.87.4-1.33L533,10.36h1.23l-1.75,4.57c-.83,2.21-1.41,3.33-2.2,4a3.24,3.24,0,0,1-1.43.75l-.29-1a3,3,0,0,0,1-.57,3.86,3.86,0,0,0,1-1.3.88.88,0,0,0,.09-.28.68.68,0,0,0-.09-.3l-2.36-5.92Z"/><path d="M535.32,12.09c0-.67,0-1.2-.06-1.73h1l.07,1.05h0a2.38,2.38,0,0,1,2.12-1.2c.89,0,2.27.53,2.27,2.74v3.83h-1.16v-3.7c0-1-.4-1.91-1.49-1.91a1.68,1.68,0,0,0-1.57,1.2,1.75,1.75,0,0,0-.08.54v3.87h-1.16Z"/><path d="M546.24,16.78l-.1-.81h0a2.37,2.37,0,0,1-2,1,1.83,1.83,0,0,1-2-1.84c0-1.55,1.38-2.41,3.86-2.39v-.14a1.33,1.33,0,0,0-1.46-1.48,3.15,3.15,0,0,0-1.68.48l-.26-.78a4.06,4.06,0,0,1,2.12-.56c2,0,2.44,1.34,2.44,2.63v2.4a9.12,9.12,0,0,0,.1,1.54Zm-.18-3.28c-1.26,0-2.71.2-2.71,1.44a1,1,0,0,0,1.09,1.12A1.59,1.59,0,0,0,546,15a.94.94,0,0,0,.06-.36Z"/><path d="M549.08,12.09c0-.67,0-1.2-.05-1.73h1l.06,1h0a2.2,2.2,0,0,1,2-1.18A1.88,1.88,0,0,1,554,11.5h0a2.63,2.63,0,0,1,.72-.84,2.2,2.2,0,0,1,1.41-.45c.86,0,2.12.55,2.12,2.79v3.78h-1.14V13.15c0-1.25-.45-2-1.39-2a1.52,1.52,0,0,0-1.39,1.05,2.13,2.13,0,0,0-.09.58v4H553.1V12.92c0-1-.45-1.75-1.34-1.75a1.61,1.61,0,0,0-1.45,1.16,1.81,1.81,0,0,0-.09.58v3.87h-1.14Z"/><path d="M561.45,8.54a.71.71,0,0,1-.74.73.73.73,0,1,1,.74-.73Zm-1.3,8.24V10.36h1.16v6.42Z"/><path d="M567.83,16.55a4.42,4.42,0,0,1-1.84.37,3.06,3.06,0,0,1-3.2-3.28,3.28,3.28,0,0,1,3.45-3.43,3.75,3.75,0,0,1,1.62.35l-.26.89a2.87,2.87,0,0,0-1.37-.31A2.23,2.23,0,0,0,564,13.57,2.21,2.21,0,0,0,566.21,16a3.4,3.4,0,0,0,1.42-.31Z"/><path d="M572.05,8a16.19,16.19,0,0,1,2.46-.19,5.12,5.12,0,0,1,3.62,1.12,4.1,4.1,0,0,1,1.27,3.21,4.78,4.78,0,0,1-1.29,3.48,5.57,5.57,0,0,1-4,1.29,20.52,20.52,0,0,1-2.1-.1Zm1.16,7.92a7.9,7.9,0,0,0,1.16.05,3.42,3.42,0,0,0,3.81-3.79c0-2.11-1.18-3.45-3.62-3.45a7.09,7.09,0,0,0-1.35.12Z"/><path d="M581.56,13.78a2,2,0,0,0,2.2,2.23,4.36,4.36,0,0,0,1.78-.33l.2.83a5.28,5.28,0,0,1-2.14.41,3,3,0,0,1-3.16-3.24c0-1.95,1.14-3.47,3-3.47,2.09,0,2.64,1.84,2.64,3a2.56,2.56,0,0,1,0,.55Zm3.42-.84a1.66,1.66,0,0,0-1.61-1.89,1.93,1.93,0,0,0-1.8,1.89Z"/><path d="M592.13,16.55a4.38,4.38,0,0,1-1.84.37,3.06,3.06,0,0,1-3.2-3.28,3.28,3.28,0,0,1,3.45-3.43,3.68,3.68,0,0,1,1.62.35l-.26.89a2.86,2.86,0,0,0-1.36-.31,2.23,2.23,0,0,0-2.27,2.43A2.21,2.21,0,0,0,590.51,16a3.45,3.45,0,0,0,1.43-.31Z"/><path d="M599.23,13.51A3.14,3.14,0,0,1,596,16.92a3.06,3.06,0,0,1-3.09-3.3,3.14,3.14,0,0,1,3.19-3.41A3,3,0,0,1,599.23,13.51Zm-5.09.07c0,1.41.81,2.47,2,2.47s2-1.05,2-2.5c0-1.09-.55-2.46-1.94-2.46S594.14,12.36,594.14,13.58Z"/><path d="M600.71,12.36c0-.76,0-1.41-.06-2h1l0,1.26h0a2,2,0,0,1,1.79-1.41,1.69,1.69,0,0,1,.33,0v1.1a2.33,2.33,0,0,0-.4,0,1.62,1.62,0,0,0-1.56,1.49,3.21,3.21,0,0,0,0,.55v3.43h-1.16Z"/><path d="M608.54,16.78l-.1-.81h0a2.37,2.37,0,0,1-2,1,1.83,1.83,0,0,1-2-1.84c0-1.55,1.38-2.41,3.86-2.39v-.14a1.33,1.33,0,0,0-1.46-1.48,3.15,3.15,0,0,0-1.68.48l-.26-.78a4.06,4.06,0,0,1,2.12-.56c2,0,2.44,1.34,2.44,2.63v2.4a9.12,9.12,0,0,0,.1,1.54Zm-.18-3.28c-1.26,0-2.71.2-2.71,1.44a1,1,0,0,0,1.09,1.12A1.61,1.61,0,0,0,608.31,15a1.16,1.16,0,0,0,.05-.36Z"/><path d="M612.73,8.51v1.85h1.68v.88h-1.68V14.7c0,.8.23,1.25.88,1.25a2.33,2.33,0,0,0,.68-.08l.05.89a3,3,0,0,1-1,.16,1.62,1.62,0,0,1-1.26-.5,2.45,2.45,0,0,1-.46-1.67V11.24h-1v-.88h1V8.81Z"/><path d="M617,8.54a.72.72,0,1,1-1.44,0,.7.7,0,0,1,.72-.72A.69.69,0,0,1,617,8.54Zm-1.3,8.24V10.36h1.16v6.42Z"/><path d="M624.64,13.51a3.14,3.14,0,0,1-3.2,3.41,3.05,3.05,0,0,1-3.08-3.3,3.14,3.14,0,0,1,3.19-3.41A3,3,0,0,1,624.64,13.51Zm-5.09.07c0,1.41.8,2.47,1.94,2.47s2-1.05,2-2.5c0-1.09-.55-2.46-1.94-2.46S619.55,12.36,619.55,13.58Z"/><path d="M626.11,12.09c0-.67,0-1.2-.05-1.73h1l.07,1.05h0a2.36,2.36,0,0,1,2.12-1.2c.88,0,2.26.53,2.26,2.74v3.83h-1.16v-3.7c0-1-.39-1.91-1.48-1.91a1.68,1.68,0,0,0-1.58,1.2,2.12,2.12,0,0,0-.08.54v3.87h-1.16Z"/><rect class="cls-2" x="581.58" y="37.3" width="21.14" height="6.65"/><rect class="cls-2" x="548.91" y="37.3" width="21.14" height="3.41"/><rect class="cls-2" x="516.25" y="37.3" width="21.14" height="0.8"/><rect class="cls-2" x="483.58" y="37.3" width="21.14" height="1.85"/><rect class="cls-2" x="614.24" y="37.3" width="21.14" height="3.92"/><rect class="cls-2" x="646.91" y="37.3" width="21.14" height="2.47"/><rect class="cls-3" x="581.58" y="43.95" width="21.14" height="4.22"/><rect class="cls-3" x="548.91" y="40.72" width="21.14" height="3.46"/><rect class="cls-3" x="516.25" y="38.1" width="21.14" height="1.46"/><rect class="cls-3" x="483.58" y="39.15" width="21.14" height="3.29"/><rect class="cls-3" x="614.24" y="41.22" width="21.14" height="3.26"/><rect class="cls-3" x="646.91" y="39.77" width="21.14" height="1.62"/><rect class="cls-4" x="581.58" y="48.16" width="21.14" height="3.46"/><rect class="cls-4" x="548.91" y="44.17" width="21.14" height="0.98"/><rect class="cls-4" x="516.25" y="39.56" width="21.14" height="1.13"/><rect class="cls-4" x="483.58" y="42.44" width="21.14" height="3.23"/><rect class="cls-4" x="614.24" y="44.48" width="21.14" height="3.05"/><rect class="cls-4" x="646.91" y="41.39" width="21.14" height="1.65"/><rect class="cls-5" x="581.58" y="51.63" width="21.14" height="2.66"/><rect class="cls-5" x="548.91" y="45.15" width="21.14" height="1.17"/><rect class="cls-5" x="516.25" y="40.69" width="21.14" height="1.48"/><rect class="cls-5" x="483.58" y="45.68" width="21.14" height="2.17"/><rect class="cls-5" x="614.24" y="47.53" width="21.14" height="2.64"/><rect class="cls-5" x="646.91" y="43.04" width="21.14" height="2.74"/><rect class="cls-6" x="581.58" y="54.28" width="21.14" height="5.01"/><rect class="cls-6" x="548.91" y="46.31" width="21.14" height="0.93"/><rect class="cls-6" x="516.25" y="42.16" width="21.14" height="1.02"/><rect class="cls-6" x="483.58" y="47.85" width="21.14" height="1.98"/><rect class="cls-6" x="614.24" y="50.16" width="21.14" height="3.19"/><rect class="cls-6" x="646.91" y="45.78" width="21.14" height="1.57"/><rect class="cls-7" x="581.58" y="59.3" width="21.14" height="8.33"/><rect class="cls-7" x="548.91" y="47.24" width="21.14" height="5.08"/><rect class="cls-7" x="516.25" y="43.18" width="21.14" height="6.46"/><rect class="cls-7" x="483.58" y="49.83" width="21.14" height="7.55"/><rect class="cls-7" x="614.24" y="53.35" width="21.14" height="9.9"/><rect class="cls-7" x="646.91" y="47.35" width="21.14" height="8.74"/><rect class="cls-8" x="581.58" y="67.63" width="21.14" height="4.96"/><rect class="cls-8" x="548.91" y="52.32" width="21.14" height="1.9"/><rect class="cls-8" x="516.25" y="49.63" width="21.14" height="3.52"/><rect class="cls-8" x="483.58" y="57.39" width="21.14" height="6.04"/><rect class="cls-8" x="614.24" y="63.25" width="21.14" height="6.7"/><rect class="cls-8" x="646.91" y="56.09" width="21.14" height="3.16"/><rect class="cls-9" x="581.58" y="72.59" width="21.14" height="23.23"/><rect class="cls-9" x="548.91" y="54.22" width="21.14" height="22.25"/><rect class="cls-9" x="516.25" y="53.15" width="21.14" height="30.26"/><rect class="cls-9" x="483.58" y="63.42" width="21.14" height="24.29"/><rect class="cls-9" x="614.24" y="69.96" width="21.14" height="20.16"/><rect class="cls-9" x="646.91" y="59.24" width="21.14" height="16.16"/><rect class="cls-10" x="581.58" y="95.82" width="21.14" height="1.77"/><rect class="cls-10" x="548.91" y="76.47" width="21.14" height="0.13"/><rect class="cls-10" x="516.25" y="83.41" width="21.14" height="0.2"/><rect class="cls-10" x="483.58" y="87.71" width="21.14" height="0.33"/><rect class="cls-10" x="614.24" y="90.12" width="21.14" height="1.22"/><rect class="cls-10" x="646.91" y="75.4" width="21.14" height="0.7"/><rect class="cls-11" x="581.58" y="97.59" width="21.14" height="24.8"/><rect class="cls-11" x="548.91" y="76.6" width="21.14" height="27.05"/><rect class="cls-11" x="516.25" y="83.62" width="21.14" height="16.18"/><rect class="cls-11" x="483.58" y="88.04" width="21.14" height="17.53"/><rect class="cls-11" x="614.24" y="91.33" width="21.14" height="28.11"/><rect class="cls-11" x="646.91" y="76.1" width="21.14" height="44.19"/><rect class="cls-12" x="581.58" y="122.39" width="21.14" height="17.75"/><rect class="cls-12" x="548.91" y="103.64" width="21.14" height="19.83"/><rect class="cls-12" x="516.25" y="99.79" width="21.14" height="25.31"/><rect class="cls-12" x="483.58" y="105.58" width="21.14" height="18.79"/><rect class="cls-12" x="614.24" y="119.45" width="21.14" height="23.17"/><rect class="cls-12" x="646.91" y="120.29" width="21.14" height="18.02"/><rect class="cls-13" x="581.58" y="140.15" width="21.14" height="2.3"/><rect class="cls-13" x="548.91" y="123.48" width="21.14" height="0.48"/><rect class="cls-13" x="516.25" y="125.1" width="21.14" height="0.88"/><rect class="cls-13" x="483.58" y="124.37" width="21.14" height="0.78"/><rect class="cls-13" x="614.24" y="142.61" width="21.14" height="3.19"/><rect class="cls-13" x="646.91" y="138.31" width="21.14" height="1.33"/><rect class="cls-14" x="581.58" y="142.45" width="21.14" height="0.92"/><rect class="cls-14" x="548.91" y="123.96" width="21.14" height="0.19"/><rect class="cls-14" x="516.25" y="125.98" width="21.14" height="0.55"/><rect class="cls-14" x="483.58" y="125.15" width="21.14" height="0.41"/><rect class="cls-14" x="614.24" y="145.8" width="21.14" height="0.97"/><rect class="cls-14" x="646.91" y="139.64" width="21.14" height="0.38"/><rect class="cls-15" x="581.58" y="143.37" width="21.14" height="0.93"/><rect class="cls-15" x="548.91" y="124.15" width="21.14" height="0.26"/><rect class="cls-15" x="516.25" y="126.52" width="21.14" height="0.83"/><rect class="cls-15" x="483.58" y="125.56" width="21.14" height="0.66"/><rect class="cls-15" x="614.24" y="146.77" width="21.14" height="0.6"/><rect class="cls-15" x="646.91" y="140.02" width="21.14" height="0.34"/><rect class="cls-16" x="581.58" y="144.3" width="21.14" height="16.57"/><rect class="cls-16" x="548.91" y="124.4" width="21.14" height="22.01"/><rect class="cls-16" x="516.25" y="127.36" width="21.14" height="31.88"/><rect class="cls-16" x="483.58" y="126.22" width="21.14" height="29.98"/><rect class="cls-16" x="614.24" y="147.38" width="21.14" height="11.8"/><rect class="cls-16" x="646.91" y="140.36" width="21.14" height="13.95"/><rect class="cls-17" x="581.58" y="160.86" width="21.14" height="6.6"/><rect class="cls-17" x="548.91" y="146.41" width="21.14" height="12.1"/><rect class="cls-17" x="516.25" y="159.24" width="21.14" height="5.16"/><rect class="cls-17" x="483.58" y="156.19" width="21.14" height="4.77"/><rect class="cls-17" x="614.24" y="159.17" width="21.14" height="10.2"/><rect class="cls-17" x="646.91" y="154.31" width="21.14" height="11.88"/><rect class="cls-18" x="581.58" y="167.46" width="21.14" height="23.29"/><rect class="cls-18" x="548.91" y="158.51" width="21.14" height="31.77"/><rect class="cls-18" x="516.25" y="164.4" width="21.14" height="31.74"/><rect class="cls-18" x="483.58" y="160.97" width="21.14" height="32.12"/><rect class="cls-18" x="614.24" y="169.37" width="21.14" height="19.72"/><rect class="cls-18" x="646.91" y="166.19" width="21.14" height="20.79"/><rect class="cls-19" x="581.58" y="190.75" width="21.14" height="9.06"/><rect class="cls-19" x="548.91" y="190.28" width="21.14" height="9.94"/><rect class="cls-19" x="516.25" y="196.14" width="21.14" height="6.85"/><rect class="cls-19" x="483.58" y="193.09" width="21.14" height="8.45"/><rect class="cls-19" x="614.24" y="189.09" width="21.14" height="9.51"/><rect class="cls-19" x="646.91" y="186.98" width="21.14" height="10.31"/><rect class="cls-20" x="581.58" y="199.81" width="21.14" height="2.97"/><rect class="cls-20" x="548.91" y="200.21" width="21.14" height="4.25"/><rect class="cls-20" x="516.25" y="202.99" width="21.14" height="2.74"/><rect class="cls-20" x="483.58" y="201.54" width="21.14" height="2.37"/><rect class="cls-20" x="614.24" y="198.61" width="21.14" height="3.05"/><rect class="cls-20" x="646.91" y="197.29" width="21.14" height="3.44"/><rect class="cls-21" x="581.58" y="202.79" width="21.14" height="2.64"/><rect class="cls-21" x="548.91" y="204.46" width="21.14" height="1.17"/><rect class="cls-21" x="516.25" y="205.73" width="21.14" height="0.51"/><rect class="cls-21" x="483.58" y="203.91" width="21.14" height="1.6"/><rect class="cls-21" x="614.24" y="201.65" width="21.14" height="3.55"/><rect class="cls-21" x="646.91" y="200.73" width="21.14" height="4.51"/><rect class="cls-22" x="581.58" y="205.42" width="21.14" height="0.45"/><rect class="cls-22" x="548.91" y="205.64" width="21.14" height="0.58"/><rect class="cls-22" x="516.25" y="206.25" width="21.14" height="0.22"/><rect class="cls-22" x="483.58" y="205.51" width="21.14" height="0.56"/><rect class="cls-22" x="614.24" y="205.21" width="21.14" height="0.44"/><rect class="cls-22" x="646.91" y="205.23" width="21.14" height="0.43"/><rect class="cls-23" x="581.58" y="205.88" width="21.14" height="0.8"/><rect class="cls-23" x="548.91" y="206.22" width="21.14" height="0.46"/><rect class="cls-23" x="516.25" y="206.46" width="21.14" height="0.22"/><rect class="cls-23" x="483.58" y="206.07" width="21.14" height="0.61"/><rect class="cls-23" x="614.24" y="205.65" width="21.14" height="1.03"/><rect class="cls-23" x="646.91" y="205.66" width="21.14" height="1.02"/><text class="cls-24" transform="translate(555.25 210.07) rotate(90)">car</text><rect class="cls-2" x="426.59" y="37.3" width="21.14" height="3.79"/><rect class="cls-2" x="361.26" y="37.3" width="21.14" height="1.93"/><rect class="cls-2" x="393.93" y="37.3" width="21.14" height="1.6"/><rect class="cls-3" x="426.59" y="41.09" width="21.14" height="4.42"/><rect class="cls-3" x="361.26" y="39.24" width="21.14" height="2.08"/><rect class="cls-3" x="393.93" y="38.9" width="21.14" height="1.54"/><rect class="cls-4" x="426.59" y="45.51" width="21.14" height="3.77"/><rect class="cls-4" x="361.26" y="41.32" width="21.14" height="2.05"/><rect class="cls-4" x="393.93" y="40.44" width="21.14" height="1.67"/><rect class="cls-5" x="426.59" y="49.29" width="21.14" height="3.56"/><rect class="cls-5" x="361.26" y="43.37" width="21.14" height="2.81"/><rect class="cls-5" x="393.93" y="42.12" width="21.14" height="7.56"/><rect class="cls-6" x="426.59" y="52.85" width="21.14" height="3.87"/><rect class="cls-6" x="361.26" y="46.19" width="21.14" height="1.57"/><rect class="cls-6" x="393.93" y="49.69" width="21.14" height="1.34"/><rect class="cls-7" x="426.59" y="56.71" width="21.14" height="9.61"/><rect class="cls-7" x="361.26" y="47.76" width="21.14" height="14.51"/><rect class="cls-7" x="393.93" y="51.03" width="21.14" height="19.98"/><rect class="cls-8" x="426.59" y="66.32" width="21.14" height="4.3"/><rect class="cls-8" x="361.26" y="62.26" width="21.14" height="9.15"/><rect class="cls-8" x="393.93" y="71.01" width="21.14" height="7.91"/><rect class="cls-9" x="426.59" y="70.62" width="21.14" height="21.48"/><rect class="cls-9" x="361.26" y="71.42" width="21.14" height="25.05"/><rect class="cls-9" x="393.93" y="78.92" width="21.14" height="11.3"/><rect class="cls-10" x="426.59" y="92.1" width="21.14" height="1.1"/><rect class="cls-10" x="361.26" y="96.46" width="21.14" height="0.73"/><rect class="cls-10" x="393.93" y="90.22" width="21.14" height="0.27"/><rect class="cls-11" x="426.59" y="93.2" width="21.14" height="37.24"/><rect class="cls-11" x="361.26" y="97.19" width="21.14" height="29.03"/><rect class="cls-11" x="393.93" y="90.49" width="21.14" height="52.31"/><rect class="cls-12" x="426.59" y="130.44" width="21.14" height="16.42"/><rect class="cls-12" x="361.26" y="126.22" width="21.14" height="32.16"/><rect class="cls-12" x="393.93" y="142.79" width="21.14" height="28.13"/><rect class="cls-13" x="426.59" y="146.86" width="21.14" height="1.93"/><rect class="cls-13" x="361.26" y="158.38" width="21.14" height="5.17"/><rect class="cls-13" x="393.93" y="170.92" width="21.14" height="1.85"/><rect class="cls-14" x="426.59" y="148.79" width="21.14" height="0.78"/><rect class="cls-14" x="361.26" y="163.55" width="21.14" height="2.07"/><rect class="cls-14" x="393.93" y="172.77" width="21.14" height="0.63"/><rect class="cls-15" x="426.59" y="149.57" width="21.14" height="0.57"/><rect class="cls-15" x="361.26" y="165.62" width="21.14" height="1.13"/><rect class="cls-15" x="393.93" y="173.41" width="21.14" height="0.33"/><rect class="cls-16" x="426.59" y="150.14" width="21.14" height="6.18"/><rect class="cls-16" x="361.26" y="166.75" width="21.14" height="7.82"/><rect class="cls-16" x="393.93" y="173.73" width="21.14" height="2.04"/><rect class="cls-17" x="426.59" y="156.32" width="21.14" height="12.53"/><rect class="cls-17" x="361.26" y="174.57" width="21.14" height="5.88"/><rect class="cls-17" x="393.93" y="175.78" width="21.14" height="11.95"/><rect class="cls-18" x="426.59" y="168.85" width="21.14" height="13.76"/><rect class="cls-18" x="361.26" y="180.45" width="21.14" height="13.26"/><rect class="cls-18" x="393.93" y="187.72" width="21.14" height="5.78"/><rect class="cls-19" x="426.59" y="182.6" width="21.14" height="12.44"/><rect class="cls-19" x="361.26" y="193.71" width="21.14" height="7.77"/><rect class="cls-19" x="393.93" y="193.51" width="21.14" height="7.76"/><rect class="cls-20" x="426.59" y="195.05" width="21.14" height="3.76"/><rect class="cls-20" x="361.26" y="201.47" width="21.14" height="3.44"/><rect class="cls-20" x="393.93" y="201.26" width="21.14" height="4.42"/><rect class="cls-21" x="426.59" y="198.81" width="21.14" height="5.19"/><rect class="cls-21" x="361.26" y="204.91" width="21.14" height="1.28"/><rect class="cls-21" x="393.93" y="205.68" width="21.14" height="0.6"/><rect class="cls-22" x="426.59" y="204" width="21.14" height="1"/><rect class="cls-22" x="361.26" y="206.19" width="21.14" height="0.19"/><rect class="cls-22" x="393.93" y="206.29" width="21.14" height="0.2"/><rect class="cls-23" x="426.59" y="205" width="21.14" height="1.68"/><rect class="cls-23" x="361.26" y="206.37" width="21.14" height="0.31"/><rect class="cls-23" x="393.93" y="206.49" width="21.14" height="0.19"/><text class="cls-24" transform="translate(400.26 210.07) rotate(90)">tra<tspan class="cls-25" x="13.8" y="0">f</tspan><tspan x="16.87" y="0">fic equipment</tspan></text><text class="cls-24" transform="translate(367.6 210.07) rotate(90)">street furniture</text><text class="cls-24" transform="translate(432.93 210.07) rotate(90)">commercial signboard</text><text class="cls-24" transform="translate(587.92 210.07) rotate(90)">bus</text><rect class="cls-2" x="18.64" y="37.3" width="21.14" height="0.3"/><rect class="cls-2" x="116.64" y="37.3" width="21.14" height="0.21"/><rect class="cls-2" x="51.31" y="37.3" width="21.14" height="0.01"/><rect class="cls-2" x="83.97" y="37.3" width="21.14" height="0.04"/><rect class="cls-2" x="149.3" y="37.3" width="21.14" height="0.37"/><rect class="cls-3" x="18.64" y="37.61" width="21.14" height="0.91"/><rect class="cls-3" x="116.64" y="37.51" width="21.14" height="1"/><rect class="cls-3" x="51.31" y="37.31" width="21.14" height="0.02"/><rect class="cls-3" x="83.97" y="37.35" width="21.14" height="0.3"/><rect class="cls-3" x="149.3" y="37.68" width="21.14" height="1.24"/><rect class="cls-4" x="18.64" y="38.51" width="21.14" height="1.69"/><rect class="cls-4" x="116.64" y="38.51" width="21.14" height="1.88"/><rect class="cls-4" x="51.31" y="37.32" width="21.14" height="0.23"/><rect class="cls-4" x="83.97" y="37.65" width="21.14" height="3.08"/><rect class="cls-4" x="149.3" y="38.92" width="21.14" height="2.04"/><rect class="cls-5" x="18.64" y="40.2" width="21.14" height="4.25"/><rect class="cls-5" x="116.64" y="40.39" width="21.14" height="2.1"/><rect class="cls-5" x="51.31" y="37.56" width="21.14" height="8.14"/><rect class="cls-5" x="83.97" y="40.73" width="21.14" height="12.41"/><rect class="cls-5" x="149.3" y="40.95" width="21.14" height="3.06"/><rect class="cls-6" x="18.64" y="44.45" width="21.14" height="1.04"/><rect class="cls-6" x="116.64" y="42.5" width="21.14" height="0.58"/><rect class="cls-6" x="51.31" y="45.7" width="21.14" height="0.65"/><rect class="cls-6" x="83.97" y="53.14" width="21.14" height="1.7"/><rect class="cls-6" x="149.3" y="44.01" width="21.14" height="0.93"/><rect class="cls-7" x="18.64" y="45.49" width="21.14" height="13.17"/><rect class="cls-7" x="116.64" y="43.07" width="21.14" height="14.91"/><rect class="cls-7" x="51.31" y="46.35" width="21.14" height="28.75"/><rect class="cls-7" x="83.97" y="54.85" width="21.14" height="30.04"/><rect class="cls-7" x="149.3" y="44.94" width="21.14" height="14.27"/><rect class="cls-8" x="18.64" y="58.65" width="21.14" height="5.95"/><rect class="cls-8" x="116.64" y="57.98" width="21.14" height="14.11"/><rect class="cls-8" x="51.31" y="75.1" width="21.14" height="3.33"/><rect class="cls-8" x="83.97" y="84.89" width="21.14" height="11.35"/><rect class="cls-8" x="149.3" y="59.21" width="21.14" height="11.53"/><rect class="cls-9" x="18.64" y="64.6" width="21.14" height="14.83"/><rect class="cls-9" x="116.64" y="72.1" width="21.14" height="32.92"/><rect class="cls-9" x="51.31" y="78.42" width="21.14" height="2.12"/><rect class="cls-9" x="83.97" y="96.24" width="21.14" height="5.1"/><rect class="cls-9" x="149.3" y="70.74" width="21.14" height="27.81"/><rect class="cls-10" x="18.64" y="79.43" width="21.14" height="0.19"/><rect class="cls-10" x="116.64" y="105.01" width="21.14" height="0.1"/><rect class="cls-10" x="51.31" y="80.54" width="21.14" height="0.01"/><rect class="cls-10" x="83.97" y="101.34" width="21.14" height="0.05"/><rect class="cls-10" x="149.3" y="98.55" width="21.14" height="0.12"/><rect class="cls-11" x="18.64" y="79.62" width="21.14" height="52.2"/><rect class="cls-11" x="116.64" y="105.11" width="21.14" height="27.87"/><rect class="cls-11" x="51.31" y="80.54" width="21.14" height="71.55"/><rect class="cls-11" x="83.97" y="101.39" width="21.14" height="64.07"/><rect class="cls-11" x="149.3" y="98.67" width="21.14" height="30.55"/><rect class="cls-12" x="18.64" y="131.81" width="21.14" height="24.78"/><rect class="cls-12" x="116.64" y="132.98" width="21.14" height="37.9"/><rect class="cls-12" x="51.31" y="152.1" width="21.14" height="29.07"/><rect class="cls-12" x="83.97" y="165.45" width="21.14" height="22.78"/><rect class="cls-12" x="149.3" y="129.22" width="21.14" height="33.22"/><rect class="cls-13" x="18.64" y="156.6" width="21.14" height="1.29"/><rect class="cls-13" x="116.64" y="170.88" width="21.14" height="2.67"/><rect class="cls-13" x="51.31" y="181.17" width="21.14" height="0.07"/><rect class="cls-13" x="83.97" y="188.24" width="21.14" height="0.54"/><rect class="cls-13" x="149.3" y="162.44" width="21.14" height="2.85"/><rect class="cls-14" x="18.64" y="157.88" width="21.14" height="0.5"/><rect class="cls-14" x="116.64" y="173.56" width="21.14" height="0.7"/><rect class="cls-14" x="51.31" y="181.24" width="21.14" height="0.01"/><rect class="cls-14" x="83.97" y="188.78" width="21.14" height="0.1"/><rect class="cls-14" x="149.3" y="165.29" width="21.14" height="0.83"/><rect class="cls-15" x="18.64" y="158.39" width="21.14" height="0.33"/><rect class="cls-15" x="116.64" y="174.25" width="21.14" height="0.41"/><rect class="cls-15" x="51.31" y="181.25" width="21.14"/><rect class="cls-15" x="83.97" y="188.88" width="21.14" height="0.04"/><rect class="cls-15" x="149.3" y="166.12" width="21.14" height="0.49"/><rect class="cls-16" x="18.64" y="158.71" width="21.14" height="4.35"/><rect class="cls-16" x="116.64" y="174.66" width="21.14" height="5.79"/><rect class="cls-16" x="51.31" y="181.25" width="21.14" height="0.21"/><rect class="cls-16" x="83.97" y="188.92" width="21.14" height="0.21"/><rect class="cls-16" x="149.3" y="166.62" width="21.14" height="8.39"/><rect class="cls-17" x="18.64" y="163.06" width="21.14" height="16.18"/><rect class="cls-17" x="116.64" y="180.45" width="21.14" height="8.94"/><rect class="cls-17" x="51.31" y="181.47" width="21.14" height="7.3"/><rect class="cls-17" x="83.97" y="189.13" width="21.14" height="10.26"/><rect class="cls-17" x="149.3" y="175" width="21.14" height="11.85"/><rect class="cls-18" x="18.64" y="179.24" width="21.14" height="9.64"/><rect class="cls-18" x="116.64" y="189.4" width="21.14" height="8.53"/><rect class="cls-18" x="51.31" y="188.76" width="21.14" height="2.81"/><rect class="cls-18" x="83.97" y="199.38" width="21.14" height="1.55"/><rect class="cls-18" x="149.3" y="186.85" width="21.14" height="9.8"/><rect class="cls-19" x="18.64" y="188.88" width="21.14" height="9.81"/><rect class="cls-19" x="116.64" y="197.92" width="21.14" height="4.88"/><rect class="cls-19" x="51.31" y="191.57" width="21.14" height="8.64"/><rect class="cls-19" x="83.97" y="200.93" width="21.14" height="3.12"/><rect class="cls-19" x="149.3" y="196.66" width="21.14" height="5.95"/><rect class="cls-20" x="18.64" y="198.68" width="21.14" height="5.5"/><rect class="cls-20" x="116.64" y="202.8" width="21.14" height="2.94"/><rect class="cls-20" x="51.31" y="200.22" width="21.14" height="6.29"/><rect class="cls-20" x="83.97" y="204.05" width="21.14" height="2.55"/><rect class="cls-20" x="149.3" y="202.61" width="21.14" height="3.16"/><rect class="cls-21" x="18.64" y="204.18" width="21.14" height="1.31"/><rect class="cls-21" x="116.64" y="205.74" width="21.14" height="0.45"/><rect class="cls-21" x="51.31" y="206.5" width="21.14" height="0.14"/><rect class="cls-21" x="83.97" y="206.6" width="21.14" height="0.04"/><rect class="cls-21" x="149.3" y="205.77" width="21.14" height="0.54"/><rect class="cls-22" x="18.64" y="205.49" width="21.14" height="0.56"/><rect class="cls-22" x="116.64" y="206.19" width="21.14" height="0.28"/><rect class="cls-22" x="51.31" y="206.64" width="21.14" height="0.02"/><rect class="cls-22" x="83.97" y="206.64" width="21.14" height="0.02"/><rect class="cls-22" x="149.3" y="206.32" width="21.14" height="0.22"/><rect class="cls-23" x="18.64" y="206.05" width="21.14" height="0.63"/><rect class="cls-23" x="116.64" y="206.47" width="21.14" height="0.21"/><rect class="cls-23" x="51.31" y="206.66" width="21.14" height="0.02"/><rect class="cls-23" x="83.97" y="206.67" width="21.14" height="0.01"/><rect class="cls-23" x="149.3" y="206.53" width="21.14" height="0.15"/><text class="cls-24" transform="translate(57.64 210.07) rotate(90)">road</text><text class="cls-24" transform="translate(24.98 210.07) rotate(90)">building</text><text class="cls-24" transform="translate(90.31 210.07) rotate(90)">sidewalk</text><text class="cls-24" transform="translate(122.97 210.07) rotate(90)">overpass</text><text class="cls-24" transform="translate(155.64 210.07) rotate(90)">tunnel</text><text class="cls-24" transform="translate(653.24 210.07) rotate(90)">truck</text><text class="cls-24" transform="translate(620.58 210.07) rotate(90)">tram</text><text class="cls-24" transform="translate(489.92 210.07) rotate(90)">pedestrian</text><rect class="cls-2" x="304.14" y="37.3" width="21.14" height="0.03"/><rect class="cls-2" x="206.15" y="37.3" width="21.14"/><rect class="cls-2" x="271.48" y="37.3" width="21.14" height="0.01"/><rect class="cls-2" x="238.81" y="37.3" width="21.14" height="0.04"/><rect class="cls-3" x="304.14" y="37.34" width="21.14" height="0.09"/><rect class="cls-3" x="206.15" y="37.31" width="21.14"/><rect class="cls-3" x="271.48" y="37.32" width="21.14" height="0.67"/><rect class="cls-3" x="238.81" y="37.34" width="21.14" height="0.23"/><rect class="cls-4" x="304.14" y="37.43" width="21.14" height="0.56"/><rect class="cls-4" x="206.15" y="37.31" width="21.14"/><rect class="cls-4" x="271.48" y="37.99" width="21.14" height="3.04"/><rect class="cls-4" x="238.81" y="37.57" width="21.14" height="0.59"/><rect class="cls-5" x="304.14" y="37.99" width="21.14" height="2.92"/><rect class="cls-5" x="206.15" y="37.31" width="21.14" height="0.08"/><rect class="cls-5" x="271.48" y="41.04" width="21.14" height="3.55"/><rect class="cls-5" x="238.81" y="38.17" width="21.14" height="1.29"/><rect class="cls-6" x="304.14" y="40.9" width="21.14" height="0.51"/><rect class="cls-6" x="206.15" y="37.39" width="21.14" height="0.04"/><rect class="cls-6" x="271.48" y="44.59" width="21.14" height="2.18"/><rect class="cls-6" x="238.81" y="39.46" width="21.14" height="1.38"/><rect class="cls-7" x="304.14" y="41.41" width="21.14" height="11.05"/><rect class="cls-7" x="206.15" y="37.43" width="21.14" height="0.34"/><rect class="cls-7" x="271.48" y="46.77" width="21.14" height="17.61"/><rect class="cls-7" x="238.81" y="40.84" width="21.14" height="7.97"/><rect class="cls-8" x="304.14" y="52.46" width="21.14" height="4.79"/><rect class="cls-8" x="206.15" y="37.77" width="21.14" height="0.25"/><rect class="cls-8" x="271.48" y="64.38" width="21.14" height="15.82"/><rect class="cls-8" x="238.81" y="48.81" width="21.14" height="7.61"/><rect class="cls-9" x="304.14" y="57.25" width="21.14" height="8.38"/><rect class="cls-9" x="206.15" y="38.02" width="21.14" height="0.99"/><rect class="cls-9" x="271.48" y="80.2" width="21.14" height="25.8"/><rect class="cls-9" x="238.81" y="56.42" width="21.14" height="34.06"/><rect class="cls-10" x="304.14" y="65.63" width="21.14" height="1.23"/><rect class="cls-10" x="206.15" y="39.01" width="21.14" height="0.15"/><rect class="cls-10" x="271.48" y="106" width="21.14" height="2.28"/><rect class="cls-10" x="238.81" y="90.48" width="21.14" height="4.42"/><rect class="cls-11" x="304.14" y="66.86" width="21.14" height="56.17"/><rect class="cls-11" x="206.15" y="39.16" width="21.14" height="7.17"/><rect class="cls-11" x="271.48" y="108.28" width="21.14" height="19.44"/><rect class="cls-11" x="238.81" y="94.91" width="21.14" height="11.7"/><rect class="cls-12" x="304.14" y="123.04" width="21.14" height="20.06"/><rect class="cls-12" x="206.15" y="46.32" width="21.14" height="0.97"/><rect class="cls-12" x="271.48" y="127.72" width="21.14" height="32.5"/><rect class="cls-12" x="238.81" y="106.61" width="21.14" height="20.54"/><rect class="cls-13" x="304.14" y="143.09" width="21.14" height="5.05"/><rect class="cls-13" x="206.15" y="47.3" width="21.14" height="0.94"/><rect class="cls-13" x="271.48" y="160.22" width="21.14" height="14.54"/><rect class="cls-13" x="238.81" y="127.15" width="21.14" height="26.67"/><rect class="cls-14" x="304.14" y="148.14" width="21.14" height="1.05"/><rect class="cls-14" x="206.15" y="48.23" width="21.14" height="0.47"/><rect class="cls-14" x="271.48" y="174.75" width="21.14" height="4.99"/><rect class="cls-14" x="238.81" y="153.82" width="21.14" height="14.36"/><rect class="cls-15" x="304.14" y="149.2" width="21.14" height="0.25"/><rect class="cls-15" x="206.15" y="48.7" width="21.14" height="0.16"/><rect class="cls-15" x="271.48" y="179.75" width="21.14" height="1.85"/><rect class="cls-15" x="238.81" y="168.18" width="21.14" height="6.65"/><rect class="cls-16" x="304.14" y="149.44" width="21.14" height="0.82"/><rect class="cls-16" x="206.15" y="48.86" width="21.14" height="0.19"/><rect class="cls-16" x="271.48" y="181.6" width="21.14" height="3.51"/><rect class="cls-16" x="238.81" y="174.83" width="21.14" height="10.53"/><rect class="cls-17" x="304.14" y="150.27" width="21.14" height="25.4"/><rect class="cls-17" x="206.15" y="49.05" width="21.14" height="128.06"/><rect class="cls-17" x="271.48" y="185.11" width="21.14" height="4.14"/><rect class="cls-17" x="238.81" y="185.35" width="21.14" height="9.18"/><rect class="cls-18" x="304.14" y="175.67" width="21.14" height="8.29"/><rect class="cls-18" x="206.15" y="177.12" width="21.14" height="0.38"/><rect class="cls-18" x="271.48" y="189.25" width="21.14" height="7.16"/><rect class="cls-18" x="238.81" y="194.53" width="21.14" height="6.78"/><rect class="cls-19" x="304.14" y="183.96" width="21.14" height="13.26"/><rect class="cls-19" x="206.15" y="177.5" width="21.14" height="0.31"/><rect class="cls-19" x="271.48" y="196.4" width="21.14" height="7.1"/><rect class="cls-19" x="238.81" y="201.31" width="21.14" height="3.05"/><rect class="cls-20" x="304.14" y="197.22" width="21.14" height="5.79"/><rect class="cls-20" x="206.15" y="177.81" width="21.14" height="0.15"/><rect class="cls-20" x="271.48" y="203.5" width="21.14" height="2.47"/><rect class="cls-20" x="238.81" y="204.36" width="21.14" height="1.43"/><rect class="cls-21" x="304.14" y="203.02" width="21.14" height="1.67"/><rect class="cls-21" x="206.15" y="177.96" width="21.14" height="0.78"/><rect class="cls-21" x="271.48" y="205.98" width="21.14" height="0.43"/><rect class="cls-21" x="238.81" y="205.79" width="21.14" height="0.23"/><rect class="cls-22" x="304.14" y="204.68" width="21.14" height="1.08"/><rect class="cls-22" x="206.15" y="178.74" width="21.14" height="16.77"/><rect class="cls-22" x="271.48" y="206.4" width="21.14" height="0.16"/><rect class="cls-22" x="238.81" y="206.03" width="21.14" height="0.43"/><rect class="cls-23" x="304.14" y="205.76" width="21.14" height="0.92"/><rect class="cls-23" x="206.15" y="195.51" width="21.14" height="11.17"/><rect class="cls-23" x="271.48" y="206.56" width="21.14" height="0.12"/><rect class="cls-23" x="238.81" y="206.46" width="21.14" height="0.22"/><text class="cls-24" transform="translate(212.48 210.07) rotate(90)">sky</text><text class="cls-24" transform="translate(245.15 210.07) rotate(90)">vegetation</text><text class="cls-24" transform="translate(277.81 210.07) rotate(90)">terrain</text><text class="cls-24" transform="translate(310.48 210.07) rotate(90)">sea</text><text class="cls-24" transform="translate(522.58 210.07) rotate(90)">motorcycle</text></g></svg>