<svg xmlns="http://www.w3.org/2000/svg" xmlns:xlink="http://www.w3.org/1999/xlink" viewBox="0 0 596.57 342.48"><defs><style>.cls-1{fill:#a84b3b;}.cls-2{fill:#66372b;}.cls-3{fill:#8a6f57;}.cls-4{fill:#bfb5a3;}.cls-5{fill:#b59e6d;}.cls-6{fill:#847f72;}.cls-7{fill:#6e6957;}.cls-8{fill:#303228;}.cls-9{fill:#7b8c47;}.cls-10{fill:#999a96;}.cls-11{fill:#5d5e5a;}.cls-12{fill:#4e5930;}.cls-13{fill:#2c3715;}.cls-14{fill:#161e06;}.cls-15{fill:#0c0f0b;}.cls-16{fill:#dbe1e4;}.cls-17{fill:#293137;}.cls-18{fill:#596772;}.cls-19{fill:#797f84;}.cls-20{fill:#5a81a6;}.cls-21{fill:#a0bee5;}.cls-22{fill:#77a0d7;}.cls-23{isolation:isolate;font-size:11.83px;font-family:ArialMT, Arial;}.cls-24{letter-spacing:-0.02em;}</style></defs><g id="Layer_4" data-name="Layer 4"><image width="3620" height="2040" transform="translate(-973.63 -175.6) scale(0.27)" xlink:href="../g_results/Manuscript_figures/sankey_plot_all.png"/></g><g id="Layer_7" data-name="Layer 7"><rect class="cls-1" x="11.41" y="121.95" width="0.21" height="21.14"/><rect class="cls-2" x="11.62" y="121.95" width="1" height="21.14"/><rect class="cls-3" x="12.62" y="121.95" width="1.88" height="21.14"/><rect class="cls-4" x="14.5" y="121.95" width="2.1" height="21.14"/><rect class="cls-5" x="16.6" y="121.95" width="0.58" height="21.14"/><rect class="cls-6" x="17.18" y="121.95" width="14.91" height="21.14"/><rect class="cls-7" x="32.09" y="121.95" width="14.11" height="21.14"/><rect class="cls-8" x="46.2" y="121.95" width="32.92" height="21.14"/><rect class="cls-9" x="79.12" y="121.95" width="0.1" height="21.14"/><rect class="cls-10" x="79.22" y="121.95" width="27.87" height="21.14"/><rect class="cls-11" x="107.09" y="121.95" width="37.9" height="21.14"/><rect class="cls-12" x="144.99" y="121.95" width="2.67" height="21.14"/><rect class="cls-13" x="147.66" y="121.95" width="0.7" height="21.14"/><rect class="cls-14" x="148.36" y="121.95" width="0.41" height="21.14"/><rect class="cls-15" x="148.76" y="121.95" width="5.79" height="21.14"/><rect class="cls-16" x="154.56" y="121.95" width="8.94" height="21.14"/><rect class="cls-17" x="163.5" y="121.95" width="8.53" height="21.14"/><rect class="cls-18" x="172.03" y="121.95" width="4.88" height="21.14"/><rect class="cls-19" x="176.91" y="121.95" width="2.94" height="21.14"/><rect class="cls-20" x="179.85" y="121.95" width="0.45" height="21.14"/><rect class="cls-21" x="180.3" y="121.95" width="0.28" height="21.14"/><rect class="cls-22" x="180.58" y="121.95" width="0.21" height="21.14"/><text class="cls-23" transform="translate(184.17 136.75)">overpass</text><rect class="cls-1" x="299.17" y="121.95" width="6.65" height="21.14"/><rect class="cls-2" x="305.81" y="121.95" width="4.22" height="21.14"/><rect class="cls-3" x="310.03" y="121.95" width="3.46" height="21.14"/><rect class="cls-4" x="313.49" y="121.95" width="2.66" height="21.14"/><rect class="cls-5" x="316.15" y="121.95" width="5.01" height="21.14"/><rect class="cls-6" x="321.16" y="121.95" width="8.33" height="21.14"/><rect class="cls-7" x="329.49" y="121.95" width="4.96" height="21.14"/><rect class="cls-8" x="334.46" y="121.95" width="23.23" height="21.14"/><rect class="cls-9" x="357.68" y="121.95" width="1.77" height="21.14"/><rect class="cls-10" x="359.45" y="121.95" width="24.8" height="21.14"/><rect class="cls-11" x="384.26" y="121.95" width="17.75" height="21.14"/><rect class="cls-12" x="402.01" y="121.95" width="2.3" height="21.14"/><rect class="cls-13" x="404.31" y="121.95" width="0.92" height="21.14"/><rect class="cls-14" x="405.23" y="121.95" width="0.93" height="21.14"/><rect class="cls-15" x="406.16" y="121.95" width="16.57" height="21.14"/><rect class="cls-16" x="422.73" y="121.95" width="6.6" height="21.14"/><rect class="cls-17" x="429.33" y="121.95" width="23.29" height="21.14"/><rect class="cls-18" x="452.62" y="121.95" width="9.06" height="21.14"/><rect class="cls-19" x="461.68" y="121.95" width="2.97" height="21.14"/><rect class="cls-20" x="464.65" y="121.95" width="2.64" height="21.14"/><rect class="cls-21" x="467.29" y="121.95" width="0.45" height="21.14"/><rect class="cls-22" x="467.74" y="121.95" width="0.8" height="21.14"/><text class="cls-23" transform="translate(471.93 136.75)">bus</text><rect class="cls-1" x="299.17" y="56.62" width="0.8" height="21.14"/><rect class="cls-2" x="299.97" y="56.62" width="1.46" height="21.14"/><rect class="cls-3" x="301.42" y="56.62" width="1.13" height="21.14"/><rect class="cls-4" x="302.55" y="56.62" width="1.48" height="21.14"/><rect class="cls-5" x="304.02" y="56.62" width="1.02" height="21.14"/><rect class="cls-6" x="305.04" y="56.62" width="6.46" height="21.14"/><rect class="cls-7" x="311.5" y="56.62" width="3.52" height="21.14"/><rect class="cls-8" x="315.02" y="56.62" width="30.26" height="21.14"/><rect class="cls-9" x="345.28" y="56.62" width="0.2" height="21.14"/><rect class="cls-10" x="345.48" y="56.62" width="16.18" height="21.14"/><rect class="cls-11" x="361.66" y="56.62" width="25.31" height="21.14"/><rect class="cls-12" x="386.96" y="56.62" width="0.88" height="21.14"/><rect class="cls-13" x="387.84" y="56.62" width="0.55" height="21.14"/><rect class="cls-14" x="388.39" y="56.62" width="0.83" height="21.14"/><rect class="cls-15" x="389.22" y="56.62" width="31.88" height="21.14"/><rect class="cls-16" x="421.1" y="56.62" width="5.16" height="21.14"/><rect class="cls-17" x="426.26" y="56.62" width="31.74" height="21.14"/><rect class="cls-18" x="458" y="56.62" width="6.85" height="21.14"/><rect class="cls-19" x="464.85" y="56.62" width="2.74" height="21.14"/><rect class="cls-20" x="467.6" y="56.62" width="0.51" height="21.14"/><rect class="cls-21" x="468.11" y="56.62" width="0.22" height="21.14"/><rect class="cls-22" x="468.33" y="56.62" width="0.22" height="21.14"/><text class="cls-23" transform="translate(471.93 71.42)">motorcycle</text><rect class="cls-1" x="299.17" y="23.95" width="1.85" height="21.14"/><rect class="cls-2" x="301.02" y="23.95" width="3.29" height="21.14"/><rect class="cls-3" x="304.31" y="23.95" width="3.23" height="21.14"/><rect class="cls-4" x="307.54" y="23.95" width="2.17" height="21.14"/><rect class="cls-5" x="309.72" y="23.95" width="1.98" height="21.14"/><rect class="cls-6" x="311.7" y="23.95" width="7.55" height="21.14"/><rect class="cls-7" x="319.25" y="23.95" width="6.04" height="21.14"/><rect class="cls-8" x="325.29" y="23.95" width="24.29" height="21.14"/><rect class="cls-9" x="349.57" y="23.95" width="0.33" height="21.14"/><rect class="cls-10" x="349.91" y="23.95" width="17.53" height="21.14"/><rect class="cls-11" x="367.44" y="23.95" width="18.79" height="21.14"/><rect class="cls-12" x="386.23" y="23.95" width="0.78" height="21.14"/><rect class="cls-13" x="387.02" y="23.95" width="0.41" height="21.14"/><rect class="cls-14" x="387.42" y="23.95" width="0.66" height="21.14"/><rect class="cls-15" x="388.08" y="23.95" width="29.98" height="21.14"/><rect class="cls-16" x="418.06" y="23.95" width="4.77" height="21.14"/><rect class="cls-17" x="422.83" y="23.95" width="32.12" height="21.14"/><rect class="cls-18" x="454.95" y="23.95" width="8.45" height="21.14"/><rect class="cls-19" x="463.4" y="23.95" width="2.37" height="21.14"/><rect class="cls-20" x="465.77" y="23.95" width="1.6" height="21.14"/><rect class="cls-21" x="467.37" y="23.95" width="0.56" height="21.14"/><rect class="cls-22" x="467.93" y="23.95" width="0.61" height="21.14"/><text class="cls-23" transform="translate(471.93 38.75)">pedestrian</text><path d="M11.49,15.42,10.72,18H9L11.9,9H14L16.89,18H15.14l-.81-2.53Zm2.57-1.23L13.35,12c-.17-.55-.32-1.16-.45-1.68h0c-.13.53-.27,1.15-.43,1.68l-.69,2.21Z"/><path d="M18,13.57c0-.87,0-1.5-.05-2.08h1.41l.06,1.23h.05a1.93,1.93,0,0,1,1.77-1.38,1.48,1.48,0,0,1,.38,0v1.54a2.14,2.14,0,0,0-.48-.05,1.43,1.43,0,0,0-1.46,1.24,2.49,2.49,0,0,0,0,.49V18H18Z"/><path d="M24.91,9.64v1.85h1.56v1.22H24.91v2.85c0,.79.21,1.19.84,1.19a2.37,2.37,0,0,0,.63-.07l0,1.24a3.49,3.49,0,0,1-1.19.17,1.91,1.91,0,0,1-1.41-.53,2.58,2.58,0,0,1-.51-1.81v-3h-.92V11.49h.92V10Z"/><path d="M29.43,9.68a.86.86,0,0,1-.93.88.88.88,0,1,1,0-1.76A.86.86,0,0,1,29.43,9.68ZM27.7,18V11.49h1.64V18Z"/><path d="M31.28,18V12.71H30.4V11.49h.88v-.31c0-1.74,1.21-2.8,3.13-2.8a3.77,3.77,0,0,1,1.78.41L35.83,10a2.86,2.86,0,0,0-1.42-.35,1.36,1.36,0,0,0-1.51,1.54v.27h3.86V18H35.12V12.71H32.91V18Z"/><path d="M43.26,17.76a4.63,4.63,0,0,1-1.82.33,3.11,3.11,0,0,1-3.34-3.3,3.34,3.34,0,0,1,3.6-3.44,4.37,4.37,0,0,1,1.58.29L43,12.87a2.79,2.79,0,0,0-1.24-.25,1.93,1.93,0,0,0-2,2.09,1.93,1.93,0,0,0,2,2.09A3.07,3.07,0,0,0,43,16.54Z"/><path d="M46.21,9.68a.92.92,0,1,1-.91-.88A.86.86,0,0,1,46.21,9.68ZM44.48,18V11.49h1.63V18Z"/><path d="M51.51,18l-.11-.72h0a2.37,2.37,0,0,1-1.91.87,1.91,1.91,0,0,1-2-1.92c0-1.63,1.45-2.46,3.83-2.45v-.11c0-.42-.17-1.13-1.31-1.12A3.41,3.41,0,0,0,48.2,13l-.32-1.06a4.59,4.59,0,0,1,2.34-.58,2.41,2.41,0,0,1,2.66,2.73V16.4A9.82,9.82,0,0,0,53,18Zm-.22-3.16C50.14,14.77,49,15,49,16a.86.86,0,0,0,.93.93A1.34,1.34,0,0,0,51.25,16a1.53,1.53,0,0,0,0-.36Z"/><path d="M54.62,8.53h1.63V18H54.62Z"/><path d="M60.83,9.13a13.38,13.38,0,0,1,2.39-.19,4.36,4.36,0,0,1,2.56.56,1.92,1.92,0,0,1,.92,1.69,2.07,2.07,0,0,1-1.49,1.93v0A2.25,2.25,0,0,1,67,15.37a2.34,2.34,0,0,1-.85,1.84,5,5,0,0,1-3.33.83,14.69,14.69,0,0,1-2-.12Zm1.62,3.53h.84c1.13,0,1.76-.53,1.76-1.29s-.63-1.22-1.66-1.22a4.44,4.44,0,0,0-.94.07Zm0,4.11a6.66,6.66,0,0,0,.87,0c1,0,2-.39,2-1.5s-.91-1.46-2-1.46h-.82Z"/><path d="M72.09,18,72,17.23h0a2.35,2.35,0,0,1-1.9.87,1.92,1.92,0,0,1-2-1.92c0-1.63,1.45-2.46,3.83-2.45v-.11c0-.42-.16-1.13-1.31-1.12a3.4,3.4,0,0,0-1.73.48l-.33-1.06a4.65,4.65,0,0,1,2.34-.58,2.42,2.42,0,0,1,2.67,2.73V16.4a9.82,9.82,0,0,0,.1,1.55Zm-.21-3.16c-1.15,0-2.26.23-2.26,1.21a.87.87,0,0,0,.93.93A1.32,1.32,0,0,0,71.83,16a1.16,1.16,0,0,0,0-.36Z"/><path d="M79.94,17.76a4.59,4.59,0,0,1-1.82.33,3.11,3.11,0,0,1-3.33-3.3,3.33,3.33,0,0,1,3.59-3.44,4.28,4.28,0,0,1,1.58.29l-.29,1.23a2.7,2.7,0,0,0-1.23-.25,1.92,1.92,0,0,0-2,2.09,1.93,1.93,0,0,0,2,2.09,3.07,3.07,0,0,0,1.28-.26Z"/><path d="M82.79,14.32h0c.15-.25.34-.52.51-.75l1.58-2.08h2l-2.4,2.64L87.21,18h-2L83.34,15.1l-.55.65V18H81.16V8.53h1.63Z"/><path d="M93.73,11.49c0,.44-.06,1-.06,1.86V17a3.72,3.72,0,0,1-1,2.93,3.73,3.73,0,0,1-2.5.79A4.7,4.7,0,0,1,88,20.22L88.32,19a3.84,3.84,0,0,0,1.89.5,1.71,1.71,0,0,0,1.85-1.95V17h0a2.17,2.17,0,0,1-1.89.95,2.86,2.86,0,0,1-2.74-3.15c0-2.13,1.38-3.42,2.92-3.42a2,2,0,0,1,1.88,1h0l.06-.86ZM92,14.08a1.56,1.56,0,0,0-.05-.44,1.36,1.36,0,0,0-1.34-1.05c-.9,0-1.58.79-1.58,2.11,0,1.1.55,2,1.58,2a1.38,1.38,0,0,0,1.32-1,2.17,2.17,0,0,0,.07-.57Z"/><path d="M95.37,13.57c0-.87,0-1.5-.05-2.08h1.42l.06,1.23h0a1.93,1.93,0,0,1,1.77-1.38,1.61,1.61,0,0,1,.39,0v1.54a2.21,2.21,0,0,0-.48-.05,1.45,1.45,0,0,0-1.47,1.24,2.49,2.49,0,0,0,0,.49V18H95.37Z"/><path d="M106.12,14.66a3.21,3.21,0,0,1-3.32,3.44,3.12,3.12,0,0,1-3.23-3.33,3.19,3.19,0,0,1,3.34-3.43A3.11,3.11,0,0,1,106.12,14.66Zm-4.87.07c0,1.24.62,2.18,1.6,2.18s1.59-.9,1.59-2.2c0-1-.45-2.18-1.58-2.18S101.25,13.65,101.25,14.73Z"/><path d="M113.25,16c0,.76,0,1.41,0,1.93h-1.43l-.08-1h0a2.36,2.36,0,0,1-2.07,1.12c-1.18,0-2.25-.71-2.25-2.82V11.49h1.63V15c0,1.07.34,1.76,1.21,1.76a1.35,1.35,0,0,0,1.24-.87,1.36,1.36,0,0,0,.09-.51v-3.9h1.64Z"/><path d="M115,13.41c0-.74,0-1.36,0-1.92h1.42l.08,1h0a2.37,2.37,0,0,1,2.06-1.12c1.13,0,2.3.73,2.3,2.77V18h-1.64V14.31c0-.93-.34-1.64-1.23-1.64a1.35,1.35,0,0,0-1.27,1,1.62,1.62,0,0,0-.08.52V18H115Z"/><path d="M128.56,8.53v7.61c0,.66,0,1.37.06,1.81h-1.46l-.07-1h0A2.32,2.32,0,0,1,125,18.1c-1.54,0-2.76-1.32-2.76-3.3,0-2.17,1.34-3.46,2.89-3.46a2,2,0,0,1,1.81.85h0V8.53Zm-1.63,5.65a2,2,0,0,0,0-.42,1.43,1.43,0,0,0-1.4-1.15c-1,0-1.64.93-1.64,2.13s.59,2,1.62,2a1.45,1.45,0,0,0,1.41-1.16,1.86,1.86,0,0,0,.05-.48Z"/><path d="M10,205.61v-9h1.87l2.31,3.84a24.9,24.9,0,0,1,1.52,3h0a36.11,36.11,0,0,1-.15-3.71v-3.12h1.51v9H15.4l-2.34-3.94a30.18,30.18,0,0,1-1.6-3.09h0c.06,1.17.08,2.35.08,3.82v3.2Z"/><path d="M22.56,205.61l-.12-.72h0a2.38,2.38,0,0,1-1.91.86,1.91,1.91,0,0,1-2-1.92c0-1.63,1.46-2.46,3.84-2.45v-.1c0-.43-.17-1.13-1.32-1.13a3.4,3.4,0,0,0-1.73.48l-.33-1.06a4.78,4.78,0,0,1,2.35-.57,2.41,2.41,0,0,1,2.66,2.72v2.33a9.87,9.87,0,0,0,.1,1.56Zm-.22-3.17c-1.15,0-2.26.23-2.26,1.21a.86.86,0,0,0,.94.93,1.31,1.31,0,0,0,1.27-.89,1.06,1.06,0,0,0,.05-.35Z"/><path d="M27.45,197.29v1.85H29v1.22H27.45v2.85c0,.79.21,1.2.84,1.2a2.89,2.89,0,0,0,.63-.07l0,1.24a3.76,3.76,0,0,1-1.19.17,1.91,1.91,0,0,1-1.41-.54,2.56,2.56,0,0,1-.51-1.81v-3h-.92v-1.22h.92v-1.46Z"/><path d="M36,203.67c0,.77,0,1.41.06,1.94H34.65l-.08-1h0a2.34,2.34,0,0,1-2.07,1.12c-1.18,0-2.25-.7-2.25-2.82v-3.79h1.64v3.52c0,1.07.34,1.76,1.2,1.76a1.35,1.35,0,0,0,1.25-.87,1.33,1.33,0,0,0,.09-.51v-3.9H36Z"/><path d="M37.79,201.22c0-.86,0-1.5,0-2.08h1.42l.06,1.23h0A1.92,1.92,0,0,1,41,199a1.5,1.5,0,0,1,.38,0v1.54a2.17,2.17,0,0,0-.47,0,1.44,1.44,0,0,0-1.47,1.23,2.6,2.6,0,0,0,0,.5v3.35H37.79Z"/><path d="M46,205.61l-.12-.72h0a2.34,2.34,0,0,1-1.9.86,1.91,1.91,0,0,1-2-1.92c0-1.63,1.45-2.46,3.84-2.45v-.1c0-.43-.17-1.13-1.32-1.13a3.4,3.4,0,0,0-1.73.48l-.33-1.06a4.77,4.77,0,0,1,2.34-.57,2.41,2.41,0,0,1,2.67,2.72v2.33a9.87,9.87,0,0,0,.1,1.56Zm-.22-3.17c-1.15,0-2.26.23-2.26,1.21a.86.86,0,0,0,.93.93,1.32,1.32,0,0,0,1.28-.89,1.06,1.06,0,0,0,0-.35Z"/><path d="M49.14,196.18h1.64v9.43H49.14Z"/><path d="M55.36,196.78a14.26,14.26,0,0,1,2.38-.19,4.36,4.36,0,0,1,2.56.57,1.91,1.91,0,0,1,.93,1.68,2.08,2.08,0,0,1-1.49,1.93v0A2.27,2.27,0,0,1,61.55,203a2.37,2.37,0,0,1-.86,1.85,5,5,0,0,1-3.32.82,17,17,0,0,1-2-.11ZM57,200.32h.84c1.13,0,1.76-.54,1.76-1.29s-.64-1.23-1.67-1.23a4.33,4.33,0,0,0-.93.07Zm0,4.1a4.94,4.94,0,0,0,.86.05c1,0,2-.4,2-1.5s-.92-1.47-2-1.47H57Z"/><path d="M66.62,205.61l-.11-.72h0a2.36,2.36,0,0,1-1.91.86,1.9,1.9,0,0,1-2-1.92c0-1.63,1.45-2.46,3.83-2.45v-.1c0-.43-.17-1.13-1.31-1.13a3.44,3.44,0,0,0-1.74.48L63,199.57a4.74,4.74,0,0,1,2.34-.57A2.41,2.41,0,0,1,68,201.72v2.33a9.87,9.87,0,0,0,.1,1.56Zm-.22-3.17c-1.15,0-2.25.23-2.25,1.21a.86.86,0,0,0,.93.93,1.34,1.34,0,0,0,1.28-.89,1.39,1.39,0,0,0,0-.35Z"/><path d="M74.47,205.41a4.61,4.61,0,0,1-1.83.34,3.11,3.11,0,0,1-3.33-3.31,3.33,3.33,0,0,1,3.6-3.44,4.15,4.15,0,0,1,1.58.3l-.29,1.23a2.77,2.77,0,0,0-1.24-.26,2.09,2.09,0,0,0,0,4.18,3.25,3.25,0,0,0,1.28-.25Z"/><path d="M77.32,202h0c.16-.25.35-.53.51-.76l1.58-2.08h2L79,201.78l2.73,3.83h-2l-1.86-2.86-.55.66v2.2H75.68v-9.43h1.64Z"/><path d="M88.25,199.14c0,.44,0,1,0,1.86v3.67a3.75,3.75,0,0,1-1,2.93,3.7,3.7,0,0,1-2.5.78,4.73,4.73,0,0,1-2.25-.51l.36-1.25a3.76,3.76,0,0,0,1.88.5,1.72,1.72,0,0,0,1.86-2v-.55h0a2.18,2.18,0,0,1-1.88.95,2.87,2.87,0,0,1-2.74-3.16c0-2.13,1.38-3.41,2.92-3.41a2,2,0,0,1,1.88,1h0l.06-.86Zm-1.68,2.6a1.51,1.51,0,0,0-.06-.44,1.35,1.35,0,0,0-1.33-1.05c-.91,0-1.59.79-1.59,2.11,0,1.1.56,2,1.58,2a1.37,1.37,0,0,0,1.32-1,1.85,1.85,0,0,0,.08-.58Z"/><path d="M89.9,201.22c0-.86,0-1.5-.05-2.08h1.41l.06,1.23h.05A1.92,1.92,0,0,1,93.14,199a1.5,1.5,0,0,1,.38,0v1.54a2.21,2.21,0,0,0-.48,0,1.43,1.43,0,0,0-1.46,1.23,2.6,2.6,0,0,0,0,.5v3.35H89.9Z"/><path d="M100.65,202.31a3.2,3.2,0,0,1-3.32,3.44,3.13,3.13,0,0,1-3.24-3.33A3.19,3.19,0,0,1,97.44,199,3.1,3.1,0,0,1,100.65,202.31Zm-4.88.07c0,1.25.62,2.19,1.61,2.19s1.59-.91,1.59-2.21c0-1-.45-2.17-1.58-2.17S95.77,201.31,95.77,202.38Z"/><path d="M107.77,203.67c0,.77,0,1.41.06,1.94H106.4l-.08-1h0a2.34,2.34,0,0,1-2.07,1.12c-1.18,0-2.25-.7-2.25-2.82v-3.79h1.64v3.52c0,1.07.34,1.76,1.2,1.76a1.35,1.35,0,0,0,1.25-.87,1.33,1.33,0,0,0,.09-.51v-3.9h1.63Z"/><path d="M109.54,201.07c0-.75,0-1.37-.05-1.93h1.43l.08,1h0A2.32,2.32,0,0,1,113.1,199c1.12,0,2.29.72,2.29,2.77v3.84h-1.63V202c0-.93-.34-1.63-1.23-1.63a1.38,1.38,0,0,0-1.28,1,1.57,1.57,0,0,0-.07.51v3.81h-1.64Z"/><path d="M123.09,196.18v7.61c0,.67,0,1.38,0,1.82h-1.45l-.07-1h0a2.31,2.31,0,0,1-2.1,1.17c-1.55,0-2.77-1.31-2.77-3.3,0-2.17,1.34-3.45,2.9-3.45a2,2,0,0,1,1.81.84h0v-3.66Zm-1.63,5.66a2.09,2.09,0,0,0,0-.43,1.43,1.43,0,0,0-1.4-1.15c-1.06,0-1.64.93-1.64,2.13s.59,2.06,1.62,2.06a1.46,1.46,0,0,0,1.41-1.17,2.26,2.26,0,0,0,0-.47Z"/><path d="M298.27,16.17a4.58,4.58,0,0,0,2.16.57c1,0,1.63-.49,1.63-1.22s-.46-1.07-1.59-1.49c-1.48-.52-2.42-1.31-2.42-2.59,0-1.47,1.23-2.57,3.17-2.57a4.66,4.66,0,0,1,2.14.44L303,10.63a3.86,3.86,0,0,0-1.79-.43c-1,0-1.47.55-1.47,1.08,0,.69.51,1,1.71,1.46,1.55.6,2.3,1.38,2.3,2.66,0,1.44-1.09,2.69-3.39,2.69a5.19,5.19,0,0,1-2.42-.57Z"/><path d="M307,9.64v1.85h1.55v1.22H307v2.85c0,.79.21,1.19.84,1.19a2.49,2.49,0,0,0,.63-.07l0,1.24a3.41,3.41,0,0,1-1.19.17,1.87,1.87,0,0,1-1.4-.53,2.58,2.58,0,0,1-.51-1.81v-3h-.92V11.49h.92V10Z"/><path d="M313.37,18l-.11-.72h0a2.36,2.36,0,0,1-1.9.87,1.92,1.92,0,0,1-2-1.92c0-1.63,1.45-2.46,3.83-2.45v-.11c0-.42-.16-1.13-1.31-1.12a3.44,3.44,0,0,0-1.74.48l-.32-1.06a4.65,4.65,0,0,1,2.34-.58,2.42,2.42,0,0,1,2.67,2.73V16.4a9.82,9.82,0,0,0,.1,1.55Zm-.21-3.16c-1.16,0-2.26.23-2.26,1.21a.87.87,0,0,0,.93.93,1.34,1.34,0,0,0,1.28-.89,1.16,1.16,0,0,0,.05-.36Z"/><path d="M318.27,9.64v1.85h1.56v1.22h-1.56v2.85c0,.79.21,1.19.84,1.19a2.37,2.37,0,0,0,.63-.07l0,1.24a3.41,3.41,0,0,1-1.19.17,1.87,1.87,0,0,1-1.4-.53,2.58,2.58,0,0,1-.51-1.81v-3h-.92V11.49h.92V10Z"/><path d="M322.79,9.68a.92.92,0,1,1-.91-.88A.86.86,0,0,1,322.79,9.68ZM321.06,18V11.49h1.64V18Z"/><path d="M329.2,17.76a4.65,4.65,0,0,1-1.83.33,3.11,3.11,0,0,1-3.33-3.3,3.34,3.34,0,0,1,3.6-3.44,4.37,4.37,0,0,1,1.58.29l-.29,1.23a2.79,2.79,0,0,0-1.24-.25,1.93,1.93,0,0,0-2,2.09,1.93,1.93,0,0,0,2,2.09,3.07,3.07,0,0,0,1.28-.26Z"/><path d="M333.22,9.13a16.6,16.6,0,0,1,2.61-.19,5.42,5.42,0,0,1,3.64,1,4,4,0,0,1,1.4,3.29,4.61,4.61,0,0,1-1.39,3.56A6,6,0,0,1,335.43,18a17.41,17.41,0,0,1-2.21-.12Zm1.63,7.58a6.2,6.2,0,0,0,.91,0,3.07,3.07,0,0,0,3.39-3.43A2.84,2.84,0,0,0,336,10.21a5.72,5.72,0,0,0-1.12.09Z"/><path d="M343.39,15.17a1.77,1.77,0,0,0,2,1.69,4.92,4.92,0,0,0,1.78-.3l.24,1.12a5.74,5.74,0,0,1-2.26.41,3.05,3.05,0,0,1-3.32-3.27A3.2,3.2,0,0,1,345,11.34c2.1,0,2.78,1.73,2.78,3.15a3.62,3.62,0,0,1,0,.68ZM346.23,14a1.39,1.39,0,0,0-1.34-1.57,1.59,1.59,0,0,0-1.5,1.57Z"/><path d="M353.83,17.76a4.63,4.63,0,0,1-1.82.33,3.11,3.11,0,0,1-3.33-3.3,3.33,3.33,0,0,1,3.59-3.44,4.28,4.28,0,0,1,1.58.29l-.29,1.23a2.72,2.72,0,0,0-1.24-.25,1.94,1.94,0,0,0-2,2.09,1.93,1.93,0,0,0,2,2.09,3.07,3.07,0,0,0,1.28-.26Z"/><path d="M361.07,14.66a3.21,3.21,0,0,1-3.32,3.44,3.12,3.12,0,0,1-3.23-3.33,3.19,3.19,0,0,1,3.34-3.43A3.11,3.11,0,0,1,361.07,14.66Zm-4.87.07c0,1.24.62,2.18,1.6,2.18s1.59-.9,1.59-2.2c0-1-.45-2.18-1.58-2.18S356.2,13.65,356.2,14.73Z"/><path d="M362.41,13.57c0-.87,0-1.5-.05-2.08h1.42l.06,1.23h0a1.93,1.93,0,0,1,1.77-1.38,1.56,1.56,0,0,1,.39,0v1.54a2.21,2.21,0,0,0-.48-.05,1.45,1.45,0,0,0-1.47,1.24,2.49,2.49,0,0,0,0,.49V18h-1.64Z"/><path d="M370.66,18l-.11-.72h0a2.38,2.38,0,0,1-1.91.87,1.92,1.92,0,0,1-2-1.92c0-1.63,1.46-2.46,3.84-2.45v-.11c0-.42-.17-1.13-1.32-1.12a3.4,3.4,0,0,0-1.73.48L367,11.92a4.66,4.66,0,0,1,2.35-.58A2.41,2.41,0,0,1,372,14.07V16.4a9.82,9.82,0,0,0,.1,1.55Zm-.22-3.16c-1.15,0-2.26.23-2.26,1.21a.87.87,0,0,0,.94.93,1.31,1.31,0,0,0,1.27-.89,1.16,1.16,0,0,0,.05-.36Z"/><path d="M375.55,9.64v1.85h1.56v1.22h-1.56v2.85c0,.79.21,1.19.84,1.19a2.37,2.37,0,0,0,.63-.07l0,1.24a3.49,3.49,0,0,1-1.19.17,1.91,1.91,0,0,1-1.41-.53,2.58,2.58,0,0,1-.51-1.81v-3H373V11.49H374V10Z"/><path d="M380.07,9.68a.91.91,0,1,1-.91-.88A.86.86,0,0,1,380.07,9.68ZM378.34,18V11.49H380V18Z"/><path d="M387.88,14.66a3.21,3.21,0,0,1-3.32,3.44,3.12,3.12,0,0,1-3.23-3.33,3.19,3.19,0,0,1,3.34-3.43A3.11,3.11,0,0,1,387.88,14.66Zm-4.87.07c0,1.24.62,2.18,1.6,2.18s1.59-.9,1.59-2.2c0-1-.45-2.18-1.58-2.18S383,13.65,383,14.73Z"/><path d="M389.23,13.41c0-.74,0-1.36-.06-1.92h1.43l.08,1h0a2.37,2.37,0,0,1,2.06-1.12c1.13,0,2.3.73,2.3,2.77V18h-1.64V14.31c0-.93-.34-1.64-1.23-1.64a1.35,1.35,0,0,0-1.27,1,1.62,1.62,0,0,0-.08.52V18h-1.63Z"/><path d="M298.22,229.44a17.9,17.9,0,0,1,2.61-.19,5.45,5.45,0,0,1,3.64,1,4,4,0,0,1,1.41,3.3,4.63,4.63,0,0,1-1.4,3.56,6,6,0,0,1-4.05,1.22,17.41,17.41,0,0,1-2.21-.12Zm1.63,7.58a6.06,6.06,0,0,0,.91,0,3.08,3.08,0,0,0,3.39-3.44,2.85,2.85,0,0,0-3.18-3.11,5.55,5.55,0,0,0-1.12.1Z"/><path d="M308.41,231.81l1.16,3.46c.13.4.27.89.37,1.25h0c.1-.36.22-.85.34-1.26l1-3.45h1.74l-1.61,4.41c-.89,2.41-1.49,3.48-2.25,4.15a3.48,3.48,0,0,1-1.72.83l-.37-1.38a2.88,2.88,0,0,0,1.85-1.48.63.63,0,0,0,.1-.28.78.78,0,0,0-.09-.32l-2.37-5.93Z"/><path d="M314,233.73c0-.75,0-1.36-.06-1.92h1.43l.08,1h0a2.32,2.32,0,0,1,2.06-1.12c1.12,0,2.3.73,2.3,2.77v3.84h-1.64v-3.65c0-.93-.34-1.63-1.23-1.63a1.35,1.35,0,0,0-1.27,1,1.58,1.58,0,0,0-.08.52v3.8H314Z"/><path d="M325.25,238.27l-.11-.72h0a2.36,2.36,0,0,1-1.9.86,1.91,1.91,0,0,1-2-1.92c0-1.63,1.45-2.45,3.83-2.45v-.1c0-.43-.17-1.13-1.31-1.13a3.55,3.55,0,0,0-1.74.48l-.32-1.06a4.74,4.74,0,0,1,2.34-.57,2.42,2.42,0,0,1,2.67,2.72v2.33a9.87,9.87,0,0,0,.1,1.56ZM325,235.1c-1.16,0-2.26.23-2.26,1.22a.87.87,0,0,0,.93.93,1.33,1.33,0,0,0,1.28-.9A1.06,1.06,0,0,0,325,236Z"/><path d="M328.36,233.73c0-.75,0-1.36-.05-1.92h1.39l.08.94h0a2.24,2.24,0,0,1,2-1.09,1.87,1.87,0,0,1,1.8,1.19h0a2.78,2.78,0,0,1,.79-.81,2.24,2.24,0,0,1,1.32-.38c1.07,0,2.15.73,2.15,2.8v3.81h-1.59v-3.58c0-1.07-.37-1.71-1.15-1.71a1.24,1.24,0,0,0-1.14.86,2,2,0,0,0-.08.55v3.88h-1.59v-3.74c0-.91-.37-1.55-1.12-1.55a1.31,1.31,0,0,0-1.18.93,1.85,1.85,0,0,0-.08.54v3.82h-1.59Z"/><path d="M341.35,230a.87.87,0,0,1-.94.88.85.85,0,0,1-.89-.88.92.92,0,0,1,1.83,0Zm-1.74,8.27v-6.46h1.64v6.46Z"/><path d="M347.75,238.07a4.56,4.56,0,0,1-1.82.34,3.11,3.11,0,0,1-3.33-3.31,3.33,3.33,0,0,1,3.59-3.44,4.07,4.07,0,0,1,1.58.3l-.29,1.23a2.7,2.7,0,0,0-1.24-.26,2.1,2.1,0,0,0,0,4.19,3.23,3.23,0,0,0,1.28-.26Z"/><path d="M351.77,229.44a17.9,17.9,0,0,1,2.61-.19,5.5,5.5,0,0,1,3.65,1,4,4,0,0,1,1.4,3.3,4.66,4.66,0,0,1-1.39,3.56,6.08,6.08,0,0,1-4.06,1.22,17.41,17.41,0,0,1-2.21-.12Zm1.64,7.58a6,6,0,0,0,.91,0c2.12,0,3.38-1.17,3.38-3.44a2.84,2.84,0,0,0-3.18-3.11,5.35,5.35,0,0,0-1.11.1Z"/><path d="M362,235.49a1.76,1.76,0,0,0,2,1.68,5,5,0,0,0,1.79-.3L366,238a6,6,0,0,1-2.26.41,3.07,3.07,0,0,1-3.33-3.28,3.2,3.2,0,0,1,3.16-3.47c2.1,0,2.79,1.73,2.79,3.14a3.48,3.48,0,0,1-.06.69Zm2.84-1.14a1.38,1.38,0,0,0-1.35-1.57,1.61,1.61,0,0,0-1.5,1.57Z"/><path d="M372.39,238.07a4.65,4.65,0,0,1-1.83.34,3.11,3.11,0,0,1-3.33-3.31,3.33,3.33,0,0,1,3.6-3.44,4.06,4.06,0,0,1,1.57.3l-.29,1.23a2.68,2.68,0,0,0-1.23-.26,2.1,2.1,0,0,0,0,4.19,3.29,3.29,0,0,0,1.29-.26Z"/><path d="M379.62,235a3.2,3.2,0,0,1-3.32,3.44,3.12,3.12,0,0,1-3.23-3.33,3.19,3.19,0,0,1,3.34-3.42A3.09,3.09,0,0,1,379.62,235Zm-4.87.07c0,1.25.62,2.19,1.61,2.19s1.58-.91,1.58-2.21c0-1-.44-2.17-1.57-2.17S374.75,234,374.75,235Z"/><path d="M381,233.88c0-.86,0-1.5-.05-2.07h1.41l.06,1.22h.05a1.92,1.92,0,0,1,1.77-1.37,1.48,1.48,0,0,1,.38,0v1.53a2.21,2.21,0,0,0-.48,0,1.43,1.43,0,0,0-1.46,1.23,2.57,2.57,0,0,0,0,.5v3.35H381Z"/><path d="M389.21,238.27l-.11-.72h0a2.36,2.36,0,0,1-1.9.86,1.91,1.91,0,0,1-2-1.92c0-1.63,1.45-2.45,3.83-2.45v-.1c0-.43-.17-1.13-1.31-1.13a3.55,3.55,0,0,0-1.74.48l-.32-1.06a4.74,4.74,0,0,1,2.34-.57,2.41,2.41,0,0,1,2.66,2.72v2.33a8.7,8.7,0,0,0,.11,1.56ZM389,235.1c-1.15,0-2.25.23-2.25,1.22a.86.86,0,0,0,.93.93,1.33,1.33,0,0,0,1.28-.9,1.39,1.39,0,0,0,0-.35Z"/><path d="M394.11,230v1.86h1.55V233h-1.55v2.85c0,.8.21,1.2.83,1.2a2.52,2.52,0,0,0,.64-.07l0,1.24a3.67,3.67,0,0,1-1.19.17,1.87,1.87,0,0,1-1.4-.54,2.56,2.56,0,0,1-.51-1.81v-3h-.93v-1.21h.93v-1.47Z"/><path d="M398.63,230a.92.92,0,0,1-1.83,0,.92.92,0,0,1,1.83,0Zm-1.73,8.27v-6.46h1.63v6.46Z"/><path d="M406.43,235a3.2,3.2,0,0,1-3.32,3.44,3.12,3.12,0,0,1-3.23-3.33,3.19,3.19,0,0,1,3.34-3.42A3.09,3.09,0,0,1,406.43,235Zm-4.87.07c0,1.25.62,2.19,1.61,2.19s1.59-.91,1.59-2.21c0-1-.45-2.17-1.58-2.17S401.56,234,401.56,235Z"/><path d="M407.78,233.73c0-.75,0-1.36,0-1.92h1.43l.08,1h0a2.35,2.35,0,0,1,2.06-1.12c1.13,0,2.3.73,2.3,2.77v3.84H412v-3.65c0-.93-.34-1.63-1.24-1.63a1.35,1.35,0,0,0-1.27,1,1.6,1.6,0,0,0-.07.52v3.8h-1.64Z"/><rect class="cls-1" x="299.17" y="89.28" width="3.41" height="21.14"/><rect class="cls-2" x="302.58" y="89.28" width="3.46" height="21.14"/><rect class="cls-3" x="306.04" y="89.28" width="0.98" height="21.14"/><rect class="cls-4" x="307.01" y="89.28" width="1.17" height="21.14"/><rect class="cls-5" x="308.18" y="89.28" width="0.93" height="21.14"/><rect class="cls-6" x="309.11" y="89.28" width="5.08" height="21.14"/><rect class="cls-7" x="314.18" y="89.28" width="1.9" height="21.14"/><rect class="cls-8" x="316.08" y="89.28" width="22.25" height="21.14"/><rect class="cls-9" x="338.33" y="89.28" width="0.13" height="21.14"/><rect class="cls-10" x="338.46" y="89.28" width="27.05" height="21.14"/><rect class="cls-11" x="365.51" y="89.28" width="19.83" height="21.14"/><rect class="cls-12" x="385.34" y="89.28" width="0.48" height="21.14"/><rect class="cls-13" x="385.82" y="89.28" width="0.19" height="21.14"/><rect class="cls-14" x="386.01" y="89.28" width="0.26" height="21.14"/><rect class="cls-15" x="386.27" y="89.28" width="22.01" height="21.14"/><rect class="cls-16" x="408.28" y="89.28" width="12.1" height="21.14"/><rect class="cls-17" x="420.37" y="89.28" width="31.77" height="21.14"/><rect class="cls-18" x="452.14" y="89.28" width="9.94" height="21.14"/><rect class="cls-19" x="462.08" y="89.28" width="4.25" height="21.14"/><rect class="cls-20" x="466.33" y="89.28" width="1.17" height="21.14"/><rect class="cls-21" x="467.5" y="89.28" width="0.58" height="21.14"/><rect class="cls-22" x="468.08" y="89.28" width="0.46" height="21.14"/><text class="cls-23" transform="translate(471.93 104.08)">car</text><rect class="cls-1" x="299.17" y="276.94" width="1.6" height="21.14"/><rect class="cls-2" x="300.76" y="276.94" width="1.54" height="21.14"/><rect class="cls-3" x="302.31" y="276.94" width="1.67" height="21.14"/><rect class="cls-4" x="303.98" y="276.94" width="7.56" height="21.14"/><rect class="cls-5" x="311.55" y="276.94" width="1.34" height="21.14"/><rect class="cls-6" x="312.89" y="276.94" width="19.98" height="21.14"/><rect class="cls-7" x="332.87" y="276.94" width="7.91" height="21.14"/><rect class="cls-8" x="340.79" y="276.94" width="11.3" height="21.14"/><rect class="cls-9" x="352.09" y="276.94" width="0.27" height="21.14"/><rect class="cls-10" x="352.35" y="276.94" width="52.31" height="21.14"/><rect class="cls-11" x="404.66" y="276.94" width="28.13" height="21.14"/><rect class="cls-12" x="432.79" y="276.94" width="1.85" height="21.14"/><rect class="cls-13" x="434.64" y="276.94" width="0.63" height="21.14"/><rect class="cls-14" x="435.27" y="276.94" width="0.33" height="21.14"/><rect class="cls-15" x="435.6" y="276.94" width="2.04" height="21.14"/><rect class="cls-16" x="437.64" y="276.94" width="11.95" height="21.14"/><rect class="cls-17" x="449.59" y="276.94" width="5.78" height="21.14"/><rect class="cls-18" x="455.37" y="276.94" width="7.76" height="21.14"/><rect class="cls-19" x="463.13" y="276.94" width="4.42" height="21.14"/><rect class="cls-20" x="467.55" y="276.94" width="0.6" height="21.14"/><rect class="cls-21" x="468.15" y="276.94" width="0.2" height="21.14"/><rect class="cls-22" x="468.35" y="276.94" width="0.19" height="21.14"/><text class="cls-23" transform="translate(471.93 291.73)">tra<tspan class="cls-24" x="13.8" y="0">f</tspan><tspan x="16.87" y="0">fic equipment</tspan></text><rect class="cls-1" x="299.17" y="244.27" width="1.93" height="21.14"/><rect class="cls-2" x="301.1" y="244.27" width="2.08" height="21.14"/><rect class="cls-3" x="303.18" y="244.27" width="2.05" height="21.14"/><rect class="cls-4" x="305.24" y="244.27" width="2.81" height="21.14"/><rect class="cls-5" x="308.05" y="244.27" width="1.57" height="21.14"/><rect class="cls-6" x="309.63" y="244.27" width="14.51" height="21.14"/><rect class="cls-7" x="324.13" y="244.27" width="9.15" height="21.14"/><rect class="cls-8" x="333.28" y="244.27" width="25.05" height="21.14"/><rect class="cls-9" x="358.33" y="244.27" width="0.73" height="21.14"/><rect class="cls-10" x="359.06" y="244.27" width="29.03" height="21.14"/><rect class="cls-11" x="388.09" y="244.27" width="32.16" height="21.14"/><rect class="cls-12" x="420.25" y="244.27" width="5.17" height="21.14"/><rect class="cls-13" x="425.42" y="244.27" width="2.07" height="21.14"/><rect class="cls-14" x="427.49" y="244.27" width="1.13" height="21.14"/><rect class="cls-15" x="428.62" y="244.27" width="7.82" height="21.14"/><rect class="cls-16" x="436.43" y="244.27" width="5.88" height="21.14"/><rect class="cls-17" x="442.31" y="244.27" width="13.26" height="21.14"/><rect class="cls-18" x="455.57" y="244.27" width="7.77" height="21.14"/><rect class="cls-19" x="463.34" y="244.27" width="3.44" height="21.14"/><rect class="cls-20" x="466.77" y="244.27" width="1.28" height="21.14"/><rect class="cls-21" x="468.05" y="244.27" width="0.19" height="21.14"/><rect class="cls-22" x="468.23" y="244.27" width="0.31" height="21.14"/><text class="cls-23" transform="translate(471.93 259.07)">street furniture</text><rect class="cls-1" x="299.17" y="309.6" width="3.79" height="21.14"/><rect class="cls-2" x="302.96" y="309.6" width="4.42" height="21.14"/><rect class="cls-3" x="307.38" y="309.6" width="3.77" height="21.14"/><rect class="cls-4" x="311.15" y="309.6" width="3.56" height="21.14"/><rect class="cls-5" x="314.71" y="309.6" width="3.87" height="21.14"/><rect class="cls-6" x="318.58" y="309.6" width="9.61" height="21.14"/><rect class="cls-7" x="328.18" y="309.6" width="4.3" height="21.14"/><rect class="cls-8" x="332.49" y="309.6" width="21.48" height="21.14"/><rect class="cls-9" x="353.97" y="309.6" width="1.1" height="21.14"/><rect class="cls-10" x="355.07" y="309.6" width="37.24" height="21.14"/><rect class="cls-11" x="392.31" y="309.6" width="16.42" height="21.14"/><rect class="cls-12" x="408.73" y="309.6" width="1.93" height="21.14"/><rect class="cls-13" x="410.66" y="309.6" width="0.78" height="21.14"/><rect class="cls-14" x="411.44" y="309.6" width="0.57" height="21.14"/><rect class="cls-15" x="412.01" y="309.6" width="6.18" height="21.14"/><rect class="cls-16" x="418.18" y="309.6" width="12.53" height="21.14"/><rect class="cls-17" x="430.71" y="309.6" width="13.76" height="21.14"/><rect class="cls-18" x="444.47" y="309.6" width="12.44" height="21.14"/><rect class="cls-19" x="456.91" y="309.6" width="3.76" height="21.14"/><rect class="cls-20" x="460.68" y="309.6" width="5.19" height="21.14"/><rect class="cls-21" x="465.86" y="309.6" width="1" height="21.14"/><rect class="cls-22" x="466.86" y="309.6" width="1.68" height="21.14"/><text class="cls-23" transform="translate(471.93 324.4)">commercial signboard</text><rect class="cls-1" x="11.41" y="56.62" width="0.01" height="21.14"/><rect class="cls-2" x="11.42" y="56.62" width="0.02" height="21.14"/><rect class="cls-3" x="11.43" y="56.62" width="0.23" height="21.14"/><rect class="cls-4" x="11.66" y="56.62" width="8.14" height="21.14"/><rect class="cls-5" x="19.81" y="56.62" width="0.65" height="21.14"/><rect class="cls-6" x="20.45" y="56.62" width="28.75" height="21.14"/><rect class="cls-7" x="49.2" y="56.62" width="3.33" height="21.14"/><rect class="cls-8" x="52.53" y="56.62" width="2.12" height="21.14"/><rect class="cls-9" x="54.64" y="56.62" width="0.01" height="21.14"/><rect class="cls-10" x="54.65" y="56.62" width="71.55" height="21.14"/><rect class="cls-11" x="126.21" y="56.62" width="29.07" height="21.14"/><rect class="cls-12" x="155.28" y="56.62" width="0.07" height="21.14"/><rect class="cls-13" x="155.35" y="56.62" width="0.01" height="21.14"/><rect class="cls-14" x="155.35" y="56.62" height="21.14"/><rect class="cls-15" x="155.36" y="56.62" width="0.21" height="21.14"/><rect class="cls-16" x="155.57" y="56.62" width="7.3" height="21.14"/><rect class="cls-17" x="162.87" y="56.62" width="2.81" height="21.14"/><rect class="cls-18" x="165.68" y="56.62" width="8.64" height="21.14"/><rect class="cls-19" x="174.32" y="56.62" width="6.29" height="21.14"/><rect class="cls-20" x="180.61" y="56.62" width="0.14" height="21.14"/><rect class="cls-21" x="180.75" y="56.62" width="0.02" height="21.14"/><rect class="cls-22" x="180.77" y="56.62" width="0.02" height="21.14"/><text class="cls-23" transform="translate(184.17 71.42)">road</text><rect class="cls-1" x="11.41" y="23.95" width="0.3" height="21.14"/><rect class="cls-2" x="11.71" y="23.95" width="0.91" height="21.14"/><rect class="cls-3" x="12.62" y="23.95" width="1.69" height="21.14"/><rect class="cls-4" x="14.31" y="23.95" width="4.25" height="21.14"/><rect class="cls-5" x="18.56" y="23.95" width="1.04" height="21.14"/><rect class="cls-6" x="19.59" y="23.95" width="13.17" height="21.14"/><rect class="cls-7" x="32.76" y="23.95" width="5.95" height="21.14"/><rect class="cls-8" x="38.71" y="23.95" width="14.83" height="21.14"/><rect class="cls-9" x="53.54" y="23.95" width="0.19" height="21.14"/><rect class="cls-10" x="53.72" y="23.95" width="52.2" height="21.14"/><rect class="cls-11" x="105.92" y="23.95" width="24.78" height="21.14"/><rect class="cls-12" x="130.7" y="23.95" width="1.29" height="21.14"/><rect class="cls-13" x="131.99" y="23.95" width="0.5" height="21.14"/><rect class="cls-14" x="132.49" y="23.95" width="0.33" height="21.14"/><rect class="cls-15" x="132.82" y="23.95" width="4.35" height="21.14"/><rect class="cls-16" x="137.17" y="23.95" width="16.18" height="21.14"/><rect class="cls-17" x="153.35" y="23.95" width="9.64" height="21.14"/><rect class="cls-18" x="162.98" y="23.95" width="9.81" height="21.14"/><rect class="cls-19" x="172.79" y="23.95" width="5.5" height="21.14"/><rect class="cls-20" x="178.28" y="23.95" width="1.31" height="21.14"/><rect class="cls-21" x="179.6" y="23.95" width="0.56" height="21.14"/><rect class="cls-22" x="180.15" y="23.95" width="0.63" height="21.14"/><text class="cls-23" transform="translate(184.17 38.75)">building</text><rect class="cls-1" x="11.41" y="89.28" width="0.04" height="21.14"/><rect class="cls-2" x="11.45" y="89.28" width="0.3" height="21.14"/><rect class="cls-3" x="11.76" y="89.28" width="3.08" height="21.14"/><rect class="cls-4" x="14.84" y="89.28" width="12.41" height="21.14"/><rect class="cls-5" x="27.25" y="89.28" width="1.7" height="21.14"/><rect class="cls-6" x="28.95" y="89.28" width="30.04" height="21.14"/><rect class="cls-7" x="59" y="89.28" width="11.35" height="21.14"/><rect class="cls-8" x="70.35" y="89.28" width="5.1" height="21.14"/><rect class="cls-9" x="75.44" y="89.28" width="0.05" height="21.14"/><rect class="cls-10" x="75.49" y="89.28" width="64.07" height="21.14"/><rect class="cls-11" x="139.56" y="89.28" width="22.78" height="21.14"/><rect class="cls-12" x="162.34" y="89.28" width="0.54" height="21.14"/><rect class="cls-13" x="162.88" y="89.28" width="0.1" height="21.14"/><rect class="cls-14" x="162.98" y="89.28" width="0.04" height="21.14"/><rect class="cls-15" x="163.02" y="89.28" width="0.21" height="21.14"/><rect class="cls-16" x="163.23" y="89.28" width="10.26" height="21.14"/><rect class="cls-17" x="173.49" y="89.28" width="1.55" height="21.14"/><rect class="cls-18" x="175.04" y="89.28" width="3.12" height="21.14"/><rect class="cls-19" x="178.16" y="89.28" width="2.55" height="21.14"/><rect class="cls-20" x="180.71" y="89.28" width="0.04" height="21.14"/><rect class="cls-21" x="180.75" y="89.28" width="0.02" height="21.14"/><rect class="cls-22" x="180.77" y="89.28" width="0.01" height="21.14"/><text class="cls-23" transform="translate(184.17 104.09)">sidewalk</text><rect class="cls-1" x="11.41" y="154.61" width="0.37" height="21.14"/><rect class="cls-2" x="11.78" y="154.61" width="1.24" height="21.14"/><rect class="cls-3" x="13.02" y="154.61" width="2.04" height="21.14"/><rect class="cls-4" x="15.06" y="154.61" width="3.06" height="21.14"/><rect class="cls-5" x="18.12" y="154.61" width="0.93" height="21.14"/><rect class="cls-6" x="19.05" y="154.61" width="14.27" height="21.14"/><rect class="cls-7" x="33.32" y="154.61" width="11.53" height="21.14"/><rect class="cls-8" x="44.84" y="154.61" width="27.81" height="21.14"/><rect class="cls-9" x="72.66" y="154.61" width="0.12" height="21.14"/><rect class="cls-10" x="72.78" y="154.61" width="30.55" height="21.14"/><rect class="cls-11" x="103.33" y="154.61" width="33.22" height="21.14"/><rect class="cls-12" x="136.55" y="154.61" width="2.85" height="21.14"/><rect class="cls-13" x="139.4" y="154.61" width="0.83" height="21.14"/><rect class="cls-14" x="140.23" y="154.61" width="0.49" height="21.14"/><rect class="cls-15" x="140.72" y="154.61" width="8.39" height="21.14"/><rect class="cls-16" x="149.11" y="154.61" width="11.85" height="21.14"/><rect class="cls-17" x="160.96" y="154.61" width="9.8" height="21.14"/><rect class="cls-18" x="170.76" y="154.61" width="5.95" height="21.14"/><rect class="cls-19" x="176.71" y="154.61" width="3.16" height="21.14"/><rect class="cls-20" x="179.88" y="154.61" width="0.54" height="21.14"/><rect class="cls-21" x="180.42" y="154.61" width="0.22" height="21.14"/><rect class="cls-22" x="180.64" y="154.61" width="0.15" height="21.14"/><text class="cls-23" transform="translate(184.17 169.41)">tunnel</text><rect class="cls-1" x="299.17" y="187.28" width="2.47" height="21.14"/><rect class="cls-2" x="301.64" y="187.28" width="1.62" height="21.14"/><rect class="cls-3" x="303.25" y="187.28" width="1.65" height="21.14"/><rect class="cls-4" x="304.9" y="187.28" width="2.74" height="21.14"/><rect class="cls-5" x="307.64" y="187.28" width="1.57" height="21.14"/><rect class="cls-6" x="309.21" y="187.28" width="8.74" height="21.14"/><rect class="cls-7" x="317.95" y="187.28" width="3.16" height="21.14"/><rect class="cls-8" x="321.11" y="187.28" width="16.16" height="21.14"/><rect class="cls-9" x="337.26" y="187.28" width="0.7" height="21.14"/><rect class="cls-10" x="337.96" y="187.28" width="44.19" height="21.14"/><rect class="cls-11" x="382.15" y="187.28" width="18.02" height="21.14"/><rect class="cls-12" x="400.17" y="187.28" width="1.33" height="21.14"/><rect class="cls-13" x="401.5" y="187.28" width="0.38" height="21.14"/><rect class="cls-14" x="401.88" y="187.28" width="0.34" height="21.14"/><rect class="cls-15" x="402.22" y="187.28" width="13.95" height="21.14"/><rect class="cls-16" x="416.17" y="187.28" width="11.88" height="21.14"/><rect class="cls-17" x="428.06" y="187.28" width="20.79" height="21.14"/><rect class="cls-18" x="448.84" y="187.28" width="10.31" height="21.14"/><rect class="cls-19" x="459.16" y="187.28" width="3.44" height="21.14"/><rect class="cls-20" x="462.59" y="187.28" width="4.51" height="21.14"/><rect class="cls-21" x="467.1" y="187.28" width="0.43" height="21.14"/><rect class="cls-22" x="467.52" y="187.28" width="1.02" height="21.14"/><text class="cls-23" transform="translate(471.93 202.08)">truck</text><rect class="cls-1" x="299.17" y="154.61" width="3.92" height="21.14"/><rect class="cls-2" x="303.08" y="154.61" width="3.26" height="21.14"/><rect class="cls-3" x="306.34" y="154.61" width="3.05" height="21.14"/><rect class="cls-4" x="309.39" y="154.61" width="2.64" height="21.14"/><rect class="cls-5" x="312.03" y="154.61" width="3.19" height="21.14"/><rect class="cls-6" x="315.21" y="154.61" width="9.9" height="21.14"/><rect class="cls-7" x="325.12" y="154.61" width="6.7" height="21.14"/><rect class="cls-8" x="331.82" y="154.61" width="20.16" height="21.14"/><rect class="cls-9" x="351.98" y="154.61" width="1.22" height="21.14"/><rect class="cls-10" x="353.2" y="154.61" width="28.11" height="21.14"/><rect class="cls-11" x="381.31" y="154.61" width="23.17" height="21.14"/><rect class="cls-12" x="404.48" y="154.61" width="3.19" height="21.14"/><rect class="cls-13" x="407.66" y="154.61" width="0.97" height="21.14"/><rect class="cls-14" x="408.64" y="154.61" width="0.6" height="21.14"/><rect class="cls-15" x="409.24" y="154.61" width="11.8" height="21.14"/><rect class="cls-16" x="421.04" y="154.61" width="10.2" height="21.14"/><rect class="cls-17" x="431.24" y="154.61" width="19.72" height="21.14"/><rect class="cls-18" x="450.96" y="154.61" width="9.51" height="21.14"/><rect class="cls-19" x="460.47" y="154.61" width="3.05" height="21.14"/><rect class="cls-20" x="463.52" y="154.61" width="3.55" height="21.14"/><rect class="cls-21" x="467.07" y="154.61" width="0.44" height="21.14"/><rect class="cls-22" x="467.51" y="154.61" width="1.03" height="21.14"/><text class="cls-23" transform="translate(471.93 169.41)">tram</text><rect class="cls-1" x="11.41" y="211.61" height="21.14"/><rect class="cls-2" x="11.41" y="211.61" height="21.14"/><rect class="cls-3" x="11.41" y="211.61" height="21.14"/><rect class="cls-4" x="11.42" y="211.61" width="0.08" height="21.14"/><rect class="cls-5" x="11.49" y="211.61" width="0.04" height="21.14"/><rect class="cls-6" x="11.53" y="211.61" width="0.34" height="21.14"/><rect class="cls-7" x="11.87" y="211.61" width="0.25" height="21.14"/><rect class="cls-8" x="12.12" y="211.61" width="0.99" height="21.14"/><rect class="cls-9" x="13.11" y="211.61" width="0.15" height="21.14"/><rect class="cls-10" x="13.26" y="211.61" width="7.17" height="21.14"/><rect class="cls-11" x="20.43" y="211.61" width="0.97" height="21.14"/><rect class="cls-12" x="21.4" y="211.61" width="0.94" height="21.14"/><rect class="cls-13" x="22.34" y="211.61" width="0.47" height="21.14"/><rect class="cls-14" x="22.81" y="211.61" width="0.16" height="21.14"/><rect class="cls-15" x="22.97" y="211.61" width="0.19" height="21.14"/><rect class="cls-16" x="23.16" y="211.61" width="128.06" height="21.14"/><rect class="cls-17" x="151.22" y="211.61" width="0.38" height="21.14"/><rect class="cls-18" x="151.61" y="211.61" width="0.31" height="21.14"/><rect class="cls-19" x="151.91" y="211.61" width="0.15" height="21.14"/><rect class="cls-20" x="152.07" y="211.61" width="0.78" height="21.14"/><rect class="cls-21" x="152.85" y="211.61" width="16.77" height="21.14"/><rect class="cls-22" x="169.62" y="211.61" width="11.17" height="21.14"/><text class="cls-23" transform="translate(184.17 226.41)">sky</text><rect class="cls-1" x="11.41" y="244.27" width="0.04" height="21.14"/><rect class="cls-2" x="11.45" y="244.27" width="0.23" height="21.14"/><rect class="cls-3" x="11.68" y="244.27" width="0.59" height="21.14"/><rect class="cls-4" x="12.27" y="244.27" width="1.29" height="21.14"/><rect class="cls-5" x="13.56" y="244.27" width="1.38" height="21.14"/><rect class="cls-6" x="14.94" y="244.27" width="7.97" height="21.14"/><rect class="cls-7" x="22.91" y="244.27" width="7.61" height="21.14"/><rect class="cls-8" x="30.52" y="244.27" width="34.06" height="21.14"/><rect class="cls-9" x="64.59" y="244.27" width="4.42" height="21.14"/><rect class="cls-10" x="69.01" y="244.27" width="11.7" height="21.14"/><rect class="cls-11" x="80.72" y="244.27" width="20.54" height="21.14"/><rect class="cls-12" x="101.26" y="244.27" width="26.67" height="21.14"/><rect class="cls-13" x="127.92" y="244.27" width="14.36" height="21.14"/><rect class="cls-14" x="142.29" y="244.27" width="6.65" height="21.14"/><rect class="cls-15" x="148.93" y="244.27" width="10.53" height="21.14"/><rect class="cls-16" x="159.46" y="244.27" width="9.18" height="21.14"/><rect class="cls-17" x="168.64" y="244.27" width="6.78" height="21.14"/><rect class="cls-18" x="175.42" y="244.27" width="3.05" height="21.14"/><rect class="cls-19" x="178.47" y="244.27" width="1.43" height="21.14"/><rect class="cls-20" x="179.9" y="244.27" width="0.23" height="21.14"/><rect class="cls-21" x="180.13" y="244.27" width="0.43" height="21.14"/><rect class="cls-22" x="180.57" y="244.27" width="0.22" height="21.14"/><text class="cls-23" transform="translate(184.17 259.07)">vegetation</text><rect class="cls-1" x="11.41" y="276.94" width="0.01" height="21.14"/><rect class="cls-2" x="11.42" y="276.94" width="0.67" height="21.14"/><rect class="cls-3" x="12.1" y="276.94" width="3.04" height="21.14"/><rect class="cls-4" x="15.14" y="276.94" width="3.55" height="21.14"/><rect class="cls-5" x="18.7" y="276.94" width="2.18" height="21.14"/><rect class="cls-6" x="20.88" y="276.94" width="17.61" height="21.14"/><rect class="cls-7" x="38.49" y="276.94" width="15.82" height="21.14"/><rect class="cls-8" x="54.31" y="276.94" width="25.8" height="21.14"/><rect class="cls-9" x="80.11" y="276.94" width="2.28" height="21.14"/><rect class="cls-10" x="82.39" y="276.94" width="19.44" height="21.14"/><rect class="cls-11" x="101.83" y="276.94" width="32.5" height="21.14"/><rect class="cls-12" x="134.32" y="276.94" width="14.54" height="21.14"/><rect class="cls-13" x="148.86" y="276.94" width="4.99" height="21.14"/><rect class="cls-14" x="153.86" y="276.94" width="1.85" height="21.14"/><rect class="cls-15" x="155.7" y="276.94" width="3.51" height="21.14"/><rect class="cls-16" x="159.21" y="276.94" width="4.14" height="21.14"/><rect class="cls-17" x="163.35" y="276.94" width="7.16" height="21.14"/><rect class="cls-18" x="170.51" y="276.94" width="7.1" height="21.14"/><rect class="cls-19" x="177.61" y="276.94" width="2.47" height="21.14"/><rect class="cls-20" x="180.08" y="276.94" width="0.43" height="21.14"/><rect class="cls-21" x="180.51" y="276.94" width="0.16" height="21.14"/><rect class="cls-22" x="180.67" y="276.94" width="0.12" height="21.14"/><text class="cls-23" transform="translate(184.17 291.74)">terrain</text><rect class="cls-1" x="11.41" y="309.6" width="0.03" height="21.14"/><rect class="cls-2" x="11.44" y="309.6" width="0.09" height="21.14"/><rect class="cls-3" x="11.54" y="309.6" width="0.56" height="21.14"/><rect class="cls-4" x="12.09" y="309.6" width="2.92" height="21.14"/><rect class="cls-5" x="15.01" y="309.6" width="0.51" height="21.14"/><rect class="cls-6" x="15.52" y="309.6" width="11.05" height="21.14"/><rect class="cls-7" x="26.57" y="309.6" width="4.79" height="21.14"/><rect class="cls-8" x="31.36" y="309.6" width="8.38" height="21.14"/><rect class="cls-9" x="39.74" y="309.6" width="1.23" height="21.14"/><rect class="cls-10" x="40.97" y="309.6" width="56.17" height="21.14"/><rect class="cls-11" x="97.14" y="309.6" width="20.06" height="21.14"/><rect class="cls-12" x="117.2" y="309.6" width="5.05" height="21.14"/><rect class="cls-13" x="122.25" y="309.6" width="1.05" height="21.14"/><rect class="cls-14" x="123.3" y="309.6" width="0.25" height="21.14"/><rect class="cls-15" x="123.55" y="309.6" width="0.82" height="21.14"/><rect class="cls-16" x="124.37" y="309.6" width="25.4" height="21.14"/><rect class="cls-17" x="149.78" y="309.6" width="8.29" height="21.14"/><rect class="cls-18" x="158.06" y="309.6" width="13.26" height="21.14"/><rect class="cls-19" x="171.33" y="309.6" width="5.79" height="21.14"/><rect class="cls-20" x="177.12" y="309.6" width="1.67" height="21.14"/><rect class="cls-21" x="178.79" y="309.6" width="1.08" height="21.14"/><rect class="cls-22" x="179.87" y="309.6" width="0.92" height="21.14"/><text class="cls-23" transform="translate(184.17 324.4)">sea</text></g></svg>